<?xml version="1.0" encoding="UTF-8" standalone="no"?>
<!-- Created with Inkscape (http://www.inkscape.org/) -->
<svg
   xmlns:dc="http://purl.org/dc/elements/1.1/"
   xmlns:cc="http://creativecommons.org/ns#"
   xmlns:rdf="http://www.w3.org/1999/02/22-rdf-syntax-ns#"
   xmlns:svg="http://www.w3.org/2000/svg"
   xmlns="http://www.w3.org/2000/svg"
   xmlns:sodipodi="http://sodipodi.sourceforge.net/DTD/sodipodi-0.dtd"
   xmlns:inkscape="http://www.inkscape.org/namespaces/inkscape"
   width="64px"
   height="64px"
   id="svg2383"
   sodipodi:version="0.32"
   inkscape:version="0.46"
   sodipodi:docname="devanagari_jh.svg"
   inkscape:output_extension="org.inkscape.output.svg.inkscape">
  <defs
     id="defs2385">
    <inkscape:perspective
       sodipodi:type="inkscape:persp3d"
       inkscape:vp_x="0 : 32 : 1"
       inkscape:vp_y="0 : 1000 : 0"
       inkscape:vp_z="64 : 32 : 1"
       inkscape:persp3d-origin="32 : 21.333333 : 1"
       id="perspective2391" />
    <inkscape:perspective
       id="perspective2400"
       inkscape:persp3d-origin="372.04724 : 350.78739 : 1"
       inkscape:vp_z="744.09448 : 526.18109 : 1"
       inkscape:vp_y="0 : 1000 : 0"
       inkscape:vp_x="0 : 526.18109 : 1"
       sodipodi:type="inkscape:persp3d" />
    <inkscape:perspective
       id="perspective2415"
       inkscape:persp3d-origin="372.04724 : 350.78739 : 1"
       inkscape:vp_z="744.09448 : 526.18109 : 1"
       inkscape:vp_y="0 : 1000 : 0"
       inkscape:vp_x="0 : 526.18109 : 1"
       sodipodi:type="inkscape:persp3d" />
    <inkscape:perspective
       id="perspective2450"
       inkscape:persp3d-origin="372.04724 : 350.78739 : 1"
       inkscape:vp_z="744.09448 : 526.18109 : 1"
       inkscape:vp_y="0 : 1000 : 0"
       inkscape:vp_x="0 : 526.18109 : 1"
       sodipodi:type="inkscape:persp3d" />
    <inkscape:perspective
       id="perspective2485"
       inkscape:persp3d-origin="372.04724 : 350.78739 : 1"
       inkscape:vp_z="744.09448 : 526.18109 : 1"
       inkscape:vp_y="0 : 1000 : 0"
       inkscape:vp_x="0 : 526.18109 : 1"
       sodipodi:type="inkscape:persp3d" />
    <inkscape:perspective
       id="perspective2520"
       inkscape:persp3d-origin="372.04724 : 350.78739 : 1"
       inkscape:vp_z="744.09448 : 526.18109 : 1"
       inkscape:vp_y="0 : 1000 : 0"
       inkscape:vp_x="0 : 526.18109 : 1"
       sodipodi:type="inkscape:persp3d" />
    <inkscape:perspective
       id="perspective2655"
       inkscape:persp3d-origin="372.04724 : 350.78739 : 1"
       inkscape:vp_z="744.09448 : 526.18109 : 1"
       inkscape:vp_y="0 : 1000 : 0"
       inkscape:vp_x="0 : 526.18109 : 1"
       sodipodi:type="inkscape:persp3d" />
    <inkscape:perspective
       id="perspective2690"
       inkscape:persp3d-origin="372.04724 : 350.78739 : 1"
       inkscape:vp_z="744.09448 : 526.18109 : 1"
       inkscape:vp_y="0 : 1000 : 0"
       inkscape:vp_x="0 : 526.18109 : 1"
       sodipodi:type="inkscape:persp3d" />
    <inkscape:perspective
       id="perspective2725"
       inkscape:persp3d-origin="372.04724 : 350.78739 : 1"
       inkscape:vp_z="744.09448 : 526.18109 : 1"
       inkscape:vp_y="0 : 1000 : 0"
       inkscape:vp_x="0 : 526.18109 : 1"
       sodipodi:type="inkscape:persp3d" />
    <inkscape:perspective
       id="perspective3440"
       inkscape:persp3d-origin="372.04724 : 350.78739 : 1"
       inkscape:vp_z="744.09448 : 526.18109 : 1"
       inkscape:vp_y="0 : 1000 : 0"
       inkscape:vp_x="0 : 526.18109 : 1"
       sodipodi:type="inkscape:persp3d" />
    <inkscape:perspective
       id="perspective3708"
       inkscape:persp3d-origin="372.04724 : 350.78739 : 1"
       inkscape:vp_z="744.09448 : 526.18109 : 1"
       inkscape:vp_y="0 : 1000 : 0"
       inkscape:vp_x="0 : 526.18109 : 1"
       sodipodi:type="inkscape:persp3d" />
  </defs>
  <sodipodi:namedview
     id="base"
     pagecolor="#ffffff"
     bordercolor="#666666"
     borderopacity="1.0"
     inkscape:pageopacity="0.0"
     inkscape:pageshadow="2"
     inkscape:zoom="5.5"
     inkscape:cx="26.651626"
     inkscape:cy="29.877954"
     inkscape:current-layer="layer1"
     showgrid="true"
     inkscape:document-units="px"
     inkscape:grid-bbox="true"
     inkscape:window-width="640"
     inkscape:window-height="688"
     inkscape:window-x="112"
     inkscape:window-y="112" />
  <metadata
     id="metadata2388">
    <rdf:RDF>
      <cc:Work
         rdf:about="">
        <dc:format>image/svg+xml</dc:format>
        <dc:type
           rdf:resource="http://purl.org/dc/dcmitype/StillImage" />
      </cc:Work>
    </rdf:RDF>
  </metadata>
  <g
     id="layer1"
     inkscape:label="Layer 1"
     inkscape:groupmode="layer">
    <path
       style="fill:#000000"
       d="M 27.558651,56.004538 L 22.912965,51.331444 L 19.670018,51.594345 C 12.34342,52.188299 6.2751609,49.576791 2.6073877,44.251346 C 1.18329,42.183618 1.0367827,41.727535 1.0302624,39.341642 C 1.0237494,36.95819 1.1297862,36.61954 2.1604432,35.732201 C 5.0311196,33.260703 10.114805,35.16402 16.097937,40.950358 C 20.182046,44.900133 20.196849,44.904584 23.117906,43.061285 C 27.482332,40.307161 30.557766,34.007501 29.224332,30.552997 C 28.798969,29.451009 28.686681,29.406762 26.969128,29.664324 C 25.974976,29.813406 23.105107,30.65258 20.59164,31.529152 C 14.930415,33.503511 12.14625,33.646018 9.0805976,32.118339 C 1.0529573,28.117996 -1.8238914,18.590219 3.7192642,14.362248 C 5.7337621,12.825717 7.9315492,12.478675 15.717677,12.467642 L 22.710281,12.457731 L 22.710281,10.025521 L 22.710281,7.5933109 L 14.693384,7.5933109 L 6.6764877,7.5933109 L 3.9511231,4.8469019 C 2.4521724,3.3363769 1.2257595,1.8770505 1.2257595,1.6039554 C 1.2257595,1.2164165 7.4325,1.1184486 29.500201,1.1576688 L 57.774644,1.2079195 L 60.582406,4.1979308 L 63.390166,7.1879422 L 58.916169,7.1879422 C 56.455469,7.1879422 53.588126,7.3050019 52.544305,7.4480736 L 50.646441,7.7082049 L 50.681774,18.494361 C 50.701204,24.426748 50.708914,34.200851 50.698902,40.21459 L 50.680696,51.148664 L 47.843118,48.332828 L 45.005539,45.516994 L 45.005539,39.752049 L 45.005539,33.987107 L 42.792783,35.000138 C 41.575771,35.557306 39.4326,36.247226 38.030188,36.533295 L 35.480346,37.053415 L 35.179728,39.142294 C 34.552701,43.499253 31.717632,47.43881 27.868155,49.302307 C 26.814945,49.81216 25.953228,50.346736 25.953228,50.490252 C 25.953228,50.633773 27.782888,52.587104 30.01914,54.830992 L 34.085053,58.91079 L 33.144693,59.794209 L 32.204335,60.677633 L 27.558651,56.004538 z M 16.402372,45.332531 C 16.526579,45.131563 15.618148,44.043996 14.383638,42.915726 C 11.049001,39.868052 8.5254465,39.705439 7.1077954,42.446873 C 6.2404338,44.124166 6.3265922,44.447533 7.8129943,45.093583 C 9.2875468,45.734487 16.037891,45.922274 16.402372,45.332531 z M 39.429657,28.14501 C 40.378341,27.588252 42.021015,26.369168 43.08004,25.435933 L 45.005539,23.739143 L 45.005539,15.666227 L 45.005539,7.5933109 L 36.898173,7.5933109 L 28.790806,7.5933109 L 28.790806,13.065784 L 28.790806,18.538256 L 20.373088,18.538256 C 12.955502,18.538256 11.787552,18.627524 10.542906,19.289591 C 7.6312471,20.838394 5.6120183,25.298816 7.1336794,26.820478 C 8.123061,27.809859 10.34257,27.470184 16.224388,25.42923 C 23.899898,22.765876 27.357505,23.399168 31.73078,28.269371 L 33.845045,30.623877 L 35.774907,29.890587 C 36.836332,29.487276 38.48097,28.701768 39.429657,28.14501 z"
       id="path3714" />
  </g>
</svg>
