<?xml version="1.0" encoding="UTF-8" standalone="no"?>
<!-- Created with Inkscape (http://www.inkscape.org/) -->
<svg
   xmlns:dc="http://purl.org/dc/elements/1.1/"
   xmlns:cc="http://creativecommons.org/ns#"
   xmlns:rdf="http://www.w3.org/1999/02/22-rdf-syntax-ns#"
   xmlns:svg="http://www.w3.org/2000/svg"
   xmlns="http://www.w3.org/2000/svg"
   xmlns:sodipodi="http://sodipodi.sourceforge.net/DTD/sodipodi-0.dtd"
   xmlns:inkscape="http://www.inkscape.org/namespaces/inkscape"
   width="64"
   height="64"
   id="svg2"
   sodipodi:version="0.32"
   inkscape:version="0.46"
   version="1.0"
   sodipodi:docname="Devanagari_jh_old.svg"
   inkscape:output_extension="org.inkscape.output.svg.inkscape">
  <defs
     id="defs4">
    <inkscape:perspective
       sodipodi:type="inkscape:persp3d"
       inkscape:vp_x="0 : 526.18109 : 1"
       inkscape:vp_y="0 : 1000 : 0"
       inkscape:vp_z="744.09448 : 526.18109 : 1"
       inkscape:persp3d-origin="372.04724 : 350.78739 : 1"
       id="perspective10" />
    <inkscape:perspective
       id="perspective2467"
       inkscape:persp3d-origin="372.04724 : 350.78739 : 1"
       inkscape:vp_z="744.09448 : 526.18109 : 1"
       inkscape:vp_y="0 : 1000 : 0"
       inkscape:vp_x="0 : 526.18109 : 1"
       sodipodi:type="inkscape:persp3d" />
  </defs>
  <sodipodi:namedview
     id="base"
     pagecolor="#ffffff"
     bordercolor="#666666"
     borderopacity="1.0"
     gridtolerance="10000"
     guidetolerance="10"
     objecttolerance="10"
     inkscape:pageopacity="0.0"
     inkscape:pageshadow="2"
     inkscape:zoom="5.7439868"
     inkscape:cx="63.701542"
     inkscape:cy="27.921009"
     inkscape:document-units="px"
     inkscape:current-layer="layer1"
     showgrid="false"
     inkscape:window-width="1434"
     inkscape:window-height="839"
     inkscape:window-x="0"
     inkscape:window-y="18">
    <inkscape:grid
       type="xygrid"
       id="grid2519"
       visible="true"
       enabled="true" />
  </sodipodi:namedview>
  <metadata
     id="metadata7">
    <rdf:RDF>
      <cc:Work
         rdf:about="">
        <dc:format>image/svg+xml</dc:format>
        <dc:type
           rdf:resource="http://purl.org/dc/dcmitype/StillImage" />
      </cc:Work>
    </rdf:RDF>
  </metadata>
  <g
     inkscape:label="Layer 1"
     inkscape:groupmode="layer"
     id="layer1">
    <path
       style="fill:#000000"
       d="M 44.883388,51.571561 C 46.474897,47.688475 48.756876,42.901713 48.020684,38.478578 C 46.928627,34.967808 44.800483,33.962257 41.638758,33.943967 C 39.846483,33.953166 38.551387,34.118157 38.418024,34.354281 L 38.425371,54.325925 L 32.098595,50.69411 L 32.098595,34.771377 L 19.230007,34.899252 L 19.210774,38.801713 C 18.451396,40.627016 15.501528,39.719243 13.895341,38.686645 C 11.820449,37.455168 10.041067,35.404941 8.6300014,33.221191 C 7.795147,31.569661 7.7022809,28.917373 8.455363,28.233473 C 9.6048036,27.24662 13.333875,28.330672 13.345279,26.441753 C 13.315793,25.943786 13.266558,22.358426 13.235871,18.474286 C 13.185653,12.118548 13.108256,11.227425 12.462061,9.564656 C 11.242229,6.0098797 8.5525036,4.4081479 5.2412701,4.3501405 L 2.6742213,4.3501405 L 0.63689301,1.1099376 C 9.1123131,0.12143523 16.062195,6.5405242 18.677164,14.73968 C 19.667861,17.845981 19.173169,20.794271 19.260734,24.100417 L 19.356317,27.709304 L 31.933111,27.528856 L 31.97779,7.5223919 L 22.914226,7.4575582 L 19.521802,0.93182723 L 59.974467,1.0271025 L 63.540574,7.4425159 L 38.177201,7.6218234 L 38.249563,27.85365 C 40.312944,28.120112 42.284244,28.456383 44.208114,29.381253 C 46.544866,30.837705 48.288056,32.724405 49.657527,35.127904 C 50.379768,36.302603 50.873466,37.345316 51.263768,38.669486 C 52.239915,40.715785 52.560975,45.479764 51.948648,48.831877 C 51.060133,53.695976 50.094266,54.935001 49.974988,55.052202 L 44.883388,51.571561 z"
       id="path2473"
       sodipodi:nodetypes="ccccccccsccccsccccszccccccccccccscc" />
  </g>
</svg>
