<?xml version="1.0" encoding="UTF-8" standalone="no"?>
<!-- Created with Inkscape (http://www.inkscape.org/) -->

<svg
   xmlns:dc="http://purl.org/dc/elements/1.1/"
   xmlns:cc="http://creativecommons.org/ns#"
   xmlns:rdf="http://www.w3.org/1999/02/22-rdf-syntax-ns#"
   xmlns:svg="http://www.w3.org/2000/svg"
   xmlns="http://www.w3.org/2000/svg"
   xmlns:sodipodi="http://sodipodi.sourceforge.net/DTD/sodipodi-0.dtd"
   xmlns:inkscape="http://www.inkscape.org/namespaces/inkscape"
   width="64px"
   height="64px"
   id="svg2678"
   sodipodi:version="0.32"
   inkscape:version="0.47 r22583"
   sodipodi:docname="gupta_allahabad_gh.svg"
   inkscape:output_extension="org.inkscape.output.svg.inkscape"
   version="1.1">
  <defs
     id="defs2680">
    <inkscape:perspective
       sodipodi:type="inkscape:persp3d"
       inkscape:vp_x="0 : 32 : 1"
       inkscape:vp_y="0 : 1000 : 0"
       inkscape:vp_z="64 : 32 : 1"
       inkscape:persp3d-origin="32 : 21.333333 : 1"
       id="perspective2686" />
    <inkscape:perspective
       id="perspective2695"
       inkscape:persp3d-origin="372.04724 : 350.78739 : 1"
       inkscape:vp_z="744.09448 : 526.18109 : 1"
       inkscape:vp_y="0 : 1000 : 0"
       inkscape:vp_x="0 : 526.18109 : 1"
       sodipodi:type="inkscape:persp3d" />
    <inkscape:perspective
       id="perspective2750"
       inkscape:persp3d-origin="372.04724 : 350.78739 : 1"
       inkscape:vp_z="744.09448 : 526.18109 : 1"
       inkscape:vp_y="0 : 1000 : 0"
       inkscape:vp_x="0 : 526.18109 : 1"
       sodipodi:type="inkscape:persp3d" />
    <inkscape:perspective
       id="perspective2785"
       inkscape:persp3d-origin="372.04724 : 350.78739 : 1"
       inkscape:vp_z="744.09448 : 526.18109 : 1"
       inkscape:vp_y="0 : 1000 : 0"
       inkscape:vp_x="0 : 526.18109 : 1"
       sodipodi:type="inkscape:persp3d" />
    <inkscape:perspective
       id="perspective2820"
       inkscape:persp3d-origin="372.04724 : 350.78739 : 1"
       inkscape:vp_z="744.09448 : 526.18109 : 1"
       inkscape:vp_y="0 : 1000 : 0"
       inkscape:vp_x="0 : 526.18109 : 1"
       sodipodi:type="inkscape:persp3d" />
  </defs>
  <sodipodi:namedview
     id="base"
     pagecolor="#ffffff"
     bordercolor="#666666"
     borderopacity="1.0"
     inkscape:pageopacity="0.0"
     inkscape:pageshadow="2"
     inkscape:zoom="5.5"
     inkscape:cx="32"
     inkscape:cy="32"
     inkscape:current-layer="layer1"
     showgrid="true"
     inkscape:document-units="px"
     inkscape:grid-bbox="true"
     inkscape:window-width="640"
     inkscape:window-height="688"
     inkscape:window-x="56"
     inkscape:window-y="56"
     inkscape:window-maximized="0" />
  <metadata
     id="metadata2683">
    <rdf:RDF>
      <cc:Work
         rdf:about="">
        <dc:format>image/svg+xml</dc:format>
        <dc:type
           rdf:resource="http://purl.org/dc/dcmitype/StillImage" />
      </cc:Work>
    </rdf:RDF>
  </metadata>
  <g
     id="layer1"
     inkscape:label="Layer 1"
     inkscape:groupmode="layer">
    <path
       style="fill:#000000"
       d="M 51.001453,43.411626 C 49.800512,42.968918 45.946263,42.272854 42.43645,41.864817 34.446271,40.93591 10.681399,40.898627 7.9178979,41.810665 4.9028501,42.805721 2.7767362,41.792794 2.2758139,39.122651 1.6953673,36.028604 2.6654724,34.754408 6.3133658,33.819482 c 1.9886074,-0.509664 3.5196347,-1.335621 4.0903622,-2.206663 2.369284,-3.615984 3.646444,-15.081281 2.066283,-18.549361 -0.718088,-1.576032 -2.9137945,-2.89014 -4.8290534,-2.89014 -1.9839168,0 -3.3652141,-2.1766885 -2.9125375,-4.5896605 0.3832453,-2.042874 0.5909536,-2.195738 3.9235834,-2.88759 C 11.297222,2.146923 12.452942,2.1416706 13.3068,2.6749135 c 0.713597,0.445649 2.282115,0.557316 4.219086,0.300368 1.866949,-0.24766 4.18412,-0.100765 5.874016,0.372376 2.566653,0.71862 2.790811,0.941628 2.790811,2.776503 0,2.086183 -1.239496,3.619033 -3.475902,4.2985585 -1.18669,0.360571 -1.337491,0.994967 -1.676945,7.054673 -0.205146,3.662164 -0.807576,8.286971 -1.338732,10.27735 -0.531155,1.990381 -0.807241,3.875325 -0.613524,4.188766 0.570039,0.922343 10.563714,0.70577 11.35365,-0.246046 1.132913,-1.365076 2.136922,-12.605075 1.817887,-20.351478 -0.193454,-4.6971965 -0.06712,-7.5443165 0.353424,-7.9648585 1.161524,-1.1615239 5.865837,-0.779961 7.232414,0.586614 1.052858,1.052859 1.241116,2.068526 1.241116,6.6959195 0,3.000143 -0.440171,8.620938 -0.978158,12.490655 -1.292385,9.296076 -1.166598,9.701065 3.306071,10.644371 3.946699,0.832376 8.533705,1.091018 9.111364,0.513751 0.205242,-0.205105 -0.05062,-2.387555 -0.568594,-4.849892 -0.517968,-2.462338 -0.942651,-5.505912 -0.943737,-6.763499 -0.0028,-3.196178 -1.823275,-13.3332885 -2.522505,-14.0460935 -0.979373,-0.998383 -0.644674,-4.432791 0.536139,-5.50141 1.565026,-1.4163295 5.634762,-0.7325889 6.317325,1.061348 0.698743,1.83646 1.8766,9.8502485 1.8766,12.7678045 0,1.34224 0.435455,4.059755 0.967678,6.038922 1.353802,5.034364 2.877117,16.836493 2.433692,18.855415 -0.550604,2.506874 -5.040613,3.224171 -9.618523,1.536595 z"
       id="path2826" />
  </g>
</svg>
