<?xml version="1.0" encoding="UTF-8" standalone="no"?>
<!-- Created with Inkscape (http://www.inkscape.org/) -->

<svg
   xmlns:dc="http://purl.org/dc/elements/1.1/"
   xmlns:cc="http://creativecommons.org/ns#"
   xmlns:rdf="http://www.w3.org/1999/02/22-rdf-syntax-ns#"
   xmlns:svg="http://www.w3.org/2000/svg"
   xmlns="http://www.w3.org/2000/svg"
   xmlns:sodipodi="http://sodipodi.sourceforge.net/DTD/sodipodi-0.dtd"
   xmlns:inkscape="http://www.inkscape.org/namespaces/inkscape"
   width="64px"
   height="64px"
   id="svg2678"
   sodipodi:version="0.32"
   inkscape:version="0.47 r22583"
   sodipodi:docname="gupta_allahabad_ch.svg"
   inkscape:output_extension="org.inkscape.output.svg.inkscape"
   version="1.1">
  <defs
     id="defs2680">
    <inkscape:perspective
       sodipodi:type="inkscape:persp3d"
       inkscape:vp_x="0 : 32 : 1"
       inkscape:vp_y="0 : 1000 : 0"
       inkscape:vp_z="64 : 32 : 1"
       inkscape:persp3d-origin="32 : 21.333333 : 1"
       id="perspective2686" />
    <inkscape:perspective
       id="perspective2695"
       inkscape:persp3d-origin="372.04724 : 350.78739 : 1"
       inkscape:vp_z="744.09448 : 526.18109 : 1"
       inkscape:vp_y="0 : 1000 : 0"
       inkscape:vp_x="0 : 526.18109 : 1"
       sodipodi:type="inkscape:persp3d" />
    <inkscape:perspective
       id="perspective2750"
       inkscape:persp3d-origin="372.04724 : 350.78739 : 1"
       inkscape:vp_z="744.09448 : 526.18109 : 1"
       inkscape:vp_y="0 : 1000 : 0"
       inkscape:vp_x="0 : 526.18109 : 1"
       sodipodi:type="inkscape:persp3d" />
    <inkscape:perspective
       id="perspective2785"
       inkscape:persp3d-origin="372.04724 : 350.78739 : 1"
       inkscape:vp_z="744.09448 : 526.18109 : 1"
       inkscape:vp_y="0 : 1000 : 0"
       inkscape:vp_x="0 : 526.18109 : 1"
       sodipodi:type="inkscape:persp3d" />
    <inkscape:perspective
       id="perspective2820"
       inkscape:persp3d-origin="372.04724 : 350.78739 : 1"
       inkscape:vp_z="744.09448 : 526.18109 : 1"
       inkscape:vp_y="0 : 1000 : 0"
       inkscape:vp_x="0 : 526.18109 : 1"
       sodipodi:type="inkscape:persp3d" />
    <inkscape:perspective
       id="perspective2855"
       inkscape:persp3d-origin="372.04724 : 350.78739 : 1"
       inkscape:vp_z="744.09448 : 526.18109 : 1"
       inkscape:vp_y="0 : 1000 : 0"
       inkscape:vp_x="0 : 526.18109 : 1"
       sodipodi:type="inkscape:persp3d" />
    <inkscape:perspective
       id="perspective2890"
       inkscape:persp3d-origin="372.04724 : 350.78739 : 1"
       inkscape:vp_z="744.09448 : 526.18109 : 1"
       inkscape:vp_y="0 : 1000 : 0"
       inkscape:vp_x="0 : 526.18109 : 1"
       sodipodi:type="inkscape:persp3d" />
    <inkscape:perspective
       id="perspective2925"
       inkscape:persp3d-origin="372.04724 : 350.78739 : 1"
       inkscape:vp_z="744.09448 : 526.18109 : 1"
       inkscape:vp_y="0 : 1000 : 0"
       inkscape:vp_x="0 : 526.18109 : 1"
       sodipodi:type="inkscape:persp3d" />
  </defs>
  <sodipodi:namedview
     id="base"
     pagecolor="#ffffff"
     bordercolor="#666666"
     borderopacity="1.0"
     inkscape:pageopacity="0.0"
     inkscape:pageshadow="2"
     inkscape:zoom="5.5"
     inkscape:cx="32"
     inkscape:cy="32"
     inkscape:current-layer="layer1"
     showgrid="true"
     inkscape:document-units="px"
     inkscape:grid-bbox="true"
     inkscape:window-width="640"
     inkscape:window-height="688"
     inkscape:window-x="56"
     inkscape:window-y="56"
     inkscape:window-maximized="0" />
  <metadata
     id="metadata2683">
    <rdf:RDF>
      <cc:Work
         rdf:about="">
        <dc:format>image/svg+xml</dc:format>
        <dc:type
           rdf:resource="http://purl.org/dc/dcmitype/StillImage" />
      </cc:Work>
    </rdf:RDF>
  </metadata>
  <g
     id="layer1"
     inkscape:label="Layer 1"
     inkscape:groupmode="layer">
    <path
       style="fill:#000000"
       d="M 10.048618,49.240562 C 5.8192879,47.500115 5.582499,47.268565 3.1946348,42.538235 1.2256778,38.63775 1.0311906,37.695371 1.3571412,33.634709 c 0.326997,-4.073691 0.6431363,-4.826646 3.070065,-7.312047 1.4880401,-1.523891 3.3616946,-2.957469 4.1636754,-3.185725 0.8019804,-0.228257 2.5374964,-0.903265 3.8567024,-1.500016 1.828067,-0.826937 3.630923,-0.969522 7.579891,-0.599472 l 5.181334,0.485531 0.832046,-4.007943 C 26.49848,15.31067 26.687331,13.023511 26.460523,12.432461 26.233716,11.84141 24.758925,10.821311 23.183214,10.165572 21.379967,9.4151435 20.165221,8.3811945 19.905254,7.375488 19.053625,4.0808836 19.66892,3.8366828 29.057031,3.7432859 l 8.817808,-0.087722 1.969247,2.0554535 c 2.38224,2.4865259 2.190986,4.1774869 -0.650054,5.7473656 -3.360219,1.856761 -4.626087,5.432101 -3.461655,9.777164 0.438402,1.635894 3.305409,2.291564 4.136952,0.946099 0.222074,-0.359326 1.976429,-0.990596 3.898562,-1.402819 6.69871,-1.436617 13.632477,2.154675 17.491794,9.059742 2.194151,3.925767 2.205475,7.267326 0.04036,11.917214 -2.833591,6.085558 -8.805865,9.333593 -15.766409,8.574599 -6.124831,-0.667866 -7.939929,-1.286905 -9.962061,-3.397556 -2.625289,-2.74021 -5.394874,-2.717213 -8.570666,0.07117 -1.335869,1.172908 -3.038613,2.13256 -3.783873,2.13256 -0.745261,0 -1.552719,0.319885 -1.794352,0.710854 -0.680046,1.100344 -8.200595,0.699095 -11.374066,-0.606848 z m 10.917276,-7.515551 c 2.925112,-1.512635 4.457707,-3.606277 4.81133,-6.572642 0.406999,-3.414114 0.04213,-3.858811 -4.462296,-5.438656 -2.983722,-1.046486 -4.18447,-1.143708 -6.482596,-0.524887 -6.3928508,1.721416 -8.7472625,6.192638 -5.7263443,10.874797 0.9096413,1.409867 2.2871613,2.857934 3.0611563,3.217929 1.569058,0.729789 5.837794,-0.02537 8.79875,-1.556541 z m 29.985552,1.35464 c 1.149657,-0.594511 2.76203,-2.397657 3.583051,-4.006993 1.435051,-2.812926 1.44631,-3.029087 0.291279,-5.590484 -1.415907,-3.13993 -3.325728,-4.153802 -8.775368,-4.658609 -5.255865,-0.486858 -9.581036,1.729045 -9.911584,5.077974 -0.66704,6.758062 8.503872,12.440492 14.812622,9.178112 z"
       id="path2931" />
  </g>
</svg>
