<?xml version="1.0" encoding="UTF-8" standalone="no"?>
<!-- Created with Inkscape (http://www.inkscape.org/) -->
<svg
   xmlns:dc="http://purl.org/dc/elements/1.1/"
   xmlns:cc="http://creativecommons.org/ns#"
   xmlns:rdf="http://www.w3.org/1999/02/22-rdf-syntax-ns#"
   xmlns:svg="http://www.w3.org/2000/svg"
   xmlns="http://www.w3.org/2000/svg"
   xmlns:sodipodi="http://sodipodi.sourceforge.net/DTD/sodipodi-0.dtd"
   xmlns:inkscape="http://www.inkscape.org/namespaces/inkscape"
   width="64px"
   height="64px"
   id="svg2678"
   sodipodi:version="0.32"
   inkscape:version="0.46"
   sodipodi:docname="gupta_allahabat_j.svg"
   inkscape:output_extension="org.inkscape.output.svg.inkscape">
  <defs
     id="defs2680">
    <inkscape:perspective
       sodipodi:type="inkscape:persp3d"
       inkscape:vp_x="0 : 32 : 1"
       inkscape:vp_y="0 : 1000 : 0"
       inkscape:vp_z="64 : 32 : 1"
       inkscape:persp3d-origin="32 : 21.333333 : 1"
       id="perspective2686" />
    <inkscape:perspective
       id="perspective2695"
       inkscape:persp3d-origin="372.04724 : 350.78739 : 1"
       inkscape:vp_z="744.09448 : 526.18109 : 1"
       inkscape:vp_y="0 : 1000 : 0"
       inkscape:vp_x="0 : 526.18109 : 1"
       sodipodi:type="inkscape:persp3d" />
    <inkscape:perspective
       id="perspective2750"
       inkscape:persp3d-origin="372.04724 : 350.78739 : 1"
       inkscape:vp_z="744.09448 : 526.18109 : 1"
       inkscape:vp_y="0 : 1000 : 0"
       inkscape:vp_x="0 : 526.18109 : 1"
       sodipodi:type="inkscape:persp3d" />
    <inkscape:perspective
       id="perspective2785"
       inkscape:persp3d-origin="372.04724 : 350.78739 : 1"
       inkscape:vp_z="744.09448 : 526.18109 : 1"
       inkscape:vp_y="0 : 1000 : 0"
       inkscape:vp_x="0 : 526.18109 : 1"
       sodipodi:type="inkscape:persp3d" />
    <inkscape:perspective
       id="perspective2820"
       inkscape:persp3d-origin="372.04724 : 350.78739 : 1"
       inkscape:vp_z="744.09448 : 526.18109 : 1"
       inkscape:vp_y="0 : 1000 : 0"
       inkscape:vp_x="0 : 526.18109 : 1"
       sodipodi:type="inkscape:persp3d" />
    <inkscape:perspective
       id="perspective2855"
       inkscape:persp3d-origin="372.04724 : 350.78739 : 1"
       inkscape:vp_z="744.09448 : 526.18109 : 1"
       inkscape:vp_y="0 : 1000 : 0"
       inkscape:vp_x="0 : 526.18109 : 1"
       sodipodi:type="inkscape:persp3d" />
    <inkscape:perspective
       id="perspective2890"
       inkscape:persp3d-origin="372.04724 : 350.78739 : 1"
       inkscape:vp_z="744.09448 : 526.18109 : 1"
       inkscape:vp_y="0 : 1000 : 0"
       inkscape:vp_x="0 : 526.18109 : 1"
       sodipodi:type="inkscape:persp3d" />
    <inkscape:perspective
       id="perspective2925"
       inkscape:persp3d-origin="372.04724 : 350.78739 : 1"
       inkscape:vp_z="744.09448 : 526.18109 : 1"
       inkscape:vp_y="0 : 1000 : 0"
       inkscape:vp_x="0 : 526.18109 : 1"
       sodipodi:type="inkscape:persp3d" />
    <inkscape:perspective
       id="perspective2960"
       inkscape:persp3d-origin="372.04724 : 350.78739 : 1"
       inkscape:vp_z="744.09448 : 526.18109 : 1"
       inkscape:vp_y="0 : 1000 : 0"
       inkscape:vp_x="0 : 526.18109 : 1"
       sodipodi:type="inkscape:persp3d" />
  </defs>
  <sodipodi:namedview
     id="base"
     pagecolor="#ffffff"
     bordercolor="#666666"
     borderopacity="1.0"
     inkscape:pageopacity="0.0"
     inkscape:pageshadow="2"
     inkscape:zoom="5.5"
     inkscape:cx="32"
     inkscape:cy="32"
     inkscape:current-layer="layer1"
     showgrid="true"
     inkscape:document-units="px"
     inkscape:grid-bbox="true"
     inkscape:window-width="640"
     inkscape:window-height="688"
     inkscape:window-x="56"
     inkscape:window-y="56" />
  <metadata
     id="metadata2683">
    <rdf:RDF>
      <cc:Work
         rdf:about="">
        <dc:format>image/svg+xml</dc:format>
        <dc:type
           rdf:resource="http://purl.org/dc/dcmitype/StillImage" />
      </cc:Work>
    </rdf:RDF>
  </metadata>
  <g
     id="layer1"
     inkscape:label="Layer 1"
     inkscape:groupmode="layer">
    <path
       style="fill:#000000"
       d="M 11.982834,55.039067 C 11.527326,54.490214 11.179519,51.451271 11.209928,48.285859 C 11.503096,17.768728 11.498462,17.646994 9.9793539,15.968399 C 9.1788056,15.083803 8.0730199,14.360043 7.5220523,14.360043 C 3.7460962,14.360043 -0.01280332,10.004433 1.838288,7.7740045 C 2.7094773,6.7242859 3.9921939,6.6178863 10.345677,7.068326 C 15.337246,7.4222111 18.733224,7.2997256 20.54951,6.7002977 C 24.344461,5.447851 48.02639,5.4088568 54.137449,6.6449924 C 61.696839,8.1740938 64.623051,11.556405 61.766426,15.463075 C 60.608637,17.046445 55.424211,17.331954 52.849709,15.95412 C 51.968037,15.482264 45.894645,15.098142 38.525405,15.048155 C 23.082873,14.943406 21.883566,15.374181 21.883566,21.025692 L 21.883566,24.568577 L 24.391901,23.965715 C 25.771484,23.634141 31.067928,23.334242 36.161777,23.299271 C 45.367311,23.236072 45.455989,23.252701 50.825885,26.049225 C 55.904864,28.694248 56.243121,29.034812 56.473384,31.735249 C 56.749681,34.975521 57.249532,34.916052 47.352807,32.820321 C 41.918561,31.669565 33.47143,31.594105 28.096197,32.648297 C 23.404043,33.568524 20.339975,36.269902 20.339975,39.486425 L 20.339975,41.372874 L 33.029047,41.372874 C 40.6559,41.372874 45.908412,41.680776 46.195113,42.144669 C 46.457461,42.569156 47.523667,42.916464 48.564459,42.916464 C 56.485197,42.916464 66.638562,55.079136 59.407309,55.90507 C 56.973758,56.183022 44.324673,53.226626 43.146523,52.104531 C 42.208083,51.210741 28.28541,51.185535 27.734684,52.076628 C 27.506797,52.445359 25.886957,52.976256 24.135039,53.256397 C 22.383122,53.53654 19.961517,54.276775 18.753696,54.901364 C 16.042444,56.303408 13.08211,56.363612 11.982834,55.039067 z"
       id="path2966" />
  </g>
</svg>
