<?xml version="1.0" encoding="UTF-8" standalone="no"?>
<!-- Created with Inkscape (http://www.inkscape.org/) -->
<svg
   xmlns:dc="http://purl.org/dc/elements/1.1/"
   xmlns:cc="http://creativecommons.org/ns#"
   xmlns:rdf="http://www.w3.org/1999/02/22-rdf-syntax-ns#"
   xmlns:svg="http://www.w3.org/2000/svg"
   xmlns="http://www.w3.org/2000/svg"
   xmlns:sodipodi="http://sodipodi.sourceforge.net/DTD/sodipodi-0.dtd"
   xmlns:inkscape="http://www.inkscape.org/namespaces/inkscape"
   width="64px"
   height="64px"
   id="svg2678"
   sodipodi:version="0.32"
   inkscape:version="0.46"
   sodipodi:docname="gupta_allahabat_ddh.svg"
   inkscape:output_extension="org.inkscape.output.svg.inkscape">
  <defs
     id="defs2680">
    <inkscape:perspective
       sodipodi:type="inkscape:persp3d"
       inkscape:vp_x="0 : 32 : 1"
       inkscape:vp_y="0 : 1000 : 0"
       inkscape:vp_z="64 : 32 : 1"
       inkscape:persp3d-origin="32 : 21.333333 : 1"
       id="perspective2686" />
    <inkscape:perspective
       id="perspective2695"
       inkscape:persp3d-origin="372.04724 : 350.78739 : 1"
       inkscape:vp_z="744.09448 : 526.18109 : 1"
       inkscape:vp_y="0 : 1000 : 0"
       inkscape:vp_x="0 : 526.18109 : 1"
       sodipodi:type="inkscape:persp3d" />
    <inkscape:perspective
       id="perspective2750"
       inkscape:persp3d-origin="372.04724 : 350.78739 : 1"
       inkscape:vp_z="744.09448 : 526.18109 : 1"
       inkscape:vp_y="0 : 1000 : 0"
       inkscape:vp_x="0 : 526.18109 : 1"
       sodipodi:type="inkscape:persp3d" />
    <inkscape:perspective
       id="perspective2785"
       inkscape:persp3d-origin="372.04724 : 350.78739 : 1"
       inkscape:vp_z="744.09448 : 526.18109 : 1"
       inkscape:vp_y="0 : 1000 : 0"
       inkscape:vp_x="0 : 526.18109 : 1"
       sodipodi:type="inkscape:persp3d" />
    <inkscape:perspective
       id="perspective2820"
       inkscape:persp3d-origin="372.04724 : 350.78739 : 1"
       inkscape:vp_z="744.09448 : 526.18109 : 1"
       inkscape:vp_y="0 : 1000 : 0"
       inkscape:vp_x="0 : 526.18109 : 1"
       sodipodi:type="inkscape:persp3d" />
    <inkscape:perspective
       id="perspective2855"
       inkscape:persp3d-origin="372.04724 : 350.78739 : 1"
       inkscape:vp_z="744.09448 : 526.18109 : 1"
       inkscape:vp_y="0 : 1000 : 0"
       inkscape:vp_x="0 : 526.18109 : 1"
       sodipodi:type="inkscape:persp3d" />
    <inkscape:perspective
       id="perspective2890"
       inkscape:persp3d-origin="372.04724 : 350.78739 : 1"
       inkscape:vp_z="744.09448 : 526.18109 : 1"
       inkscape:vp_y="0 : 1000 : 0"
       inkscape:vp_x="0 : 526.18109 : 1"
       sodipodi:type="inkscape:persp3d" />
    <inkscape:perspective
       id="perspective2925"
       inkscape:persp3d-origin="372.04724 : 350.78739 : 1"
       inkscape:vp_z="744.09448 : 526.18109 : 1"
       inkscape:vp_y="0 : 1000 : 0"
       inkscape:vp_x="0 : 526.18109 : 1"
       sodipodi:type="inkscape:persp3d" />
    <inkscape:perspective
       id="perspective2960"
       inkscape:persp3d-origin="372.04724 : 350.78739 : 1"
       inkscape:vp_z="744.09448 : 526.18109 : 1"
       inkscape:vp_y="0 : 1000 : 0"
       inkscape:vp_x="0 : 526.18109 : 1"
       sodipodi:type="inkscape:persp3d" />
    <inkscape:perspective
       id="perspective2995"
       inkscape:persp3d-origin="372.04724 : 350.78739 : 1"
       inkscape:vp_z="744.09448 : 526.18109 : 1"
       inkscape:vp_y="0 : 1000 : 0"
       inkscape:vp_x="0 : 526.18109 : 1"
       sodipodi:type="inkscape:persp3d" />
    <inkscape:perspective
       id="perspective3030"
       inkscape:persp3d-origin="372.04724 : 350.78739 : 1"
       inkscape:vp_z="744.09448 : 526.18109 : 1"
       inkscape:vp_y="0 : 1000 : 0"
       inkscape:vp_x="0 : 526.18109 : 1"
       sodipodi:type="inkscape:persp3d" />
    <inkscape:perspective
       id="perspective3065"
       inkscape:persp3d-origin="372.04724 : 350.78739 : 1"
       inkscape:vp_z="744.09448 : 526.18109 : 1"
       inkscape:vp_y="0 : 1000 : 0"
       inkscape:vp_x="0 : 526.18109 : 1"
       sodipodi:type="inkscape:persp3d" />
    <inkscape:perspective
       id="perspective3100"
       inkscape:persp3d-origin="372.04724 : 350.78739 : 1"
       inkscape:vp_z="744.09448 : 526.18109 : 1"
       inkscape:vp_y="0 : 1000 : 0"
       inkscape:vp_x="0 : 526.18109 : 1"
       sodipodi:type="inkscape:persp3d" />
    <inkscape:perspective
       id="perspective3135"
       inkscape:persp3d-origin="372.04724 : 350.78739 : 1"
       inkscape:vp_z="744.09448 : 526.18109 : 1"
       inkscape:vp_y="0 : 1000 : 0"
       inkscape:vp_x="0 : 526.18109 : 1"
       sodipodi:type="inkscape:persp3d" />
  </defs>
  <sodipodi:namedview
     id="base"
     pagecolor="#ffffff"
     bordercolor="#666666"
     borderopacity="1.0"
     inkscape:pageopacity="0.0"
     inkscape:pageshadow="2"
     inkscape:zoom="5.5"
     inkscape:cx="32"
     inkscape:cy="32"
     inkscape:current-layer="layer1"
     showgrid="true"
     inkscape:document-units="px"
     inkscape:grid-bbox="true"
     inkscape:window-width="640"
     inkscape:window-height="688"
     inkscape:window-x="56"
     inkscape:window-y="56" />
  <metadata
     id="metadata2683">
    <rdf:RDF>
      <cc:Work
         rdf:about="">
        <dc:format>image/svg+xml</dc:format>
        <dc:type
           rdf:resource="http://purl.org/dc/dcmitype/StillImage" />
      </cc:Work>
    </rdf:RDF>
  </metadata>
  <g
     id="layer1"
     inkscape:label="Layer 1"
     inkscape:groupmode="layer">
    <path
       style="fill:#000000"
       d="M 27.517398,60.835022 C 25.279207,60.293221 23.156548,59.556021 22.800378,59.196802 C 22.444208,58.837583 21.254667,58.543677 20.156952,58.543677 C 16.65601,58.543677 9.3498836,49.945935 7.0350544,43.102022 C 4.5794582,35.841924 4.5162652,31.561495 6.7680556,25.016553 C 9.2227271,17.881925 9.0526018,15.752562 5.8838427,13.949399 C 0.20510032,10.717945 0.5791011,4.2222179 6.4923356,3.3809518 C 11.101024,2.7252815 21.755499,3.151858 23.207683,4.0501889 C 25.212626,5.2904599 23.810687,14.595568 21.140835,17.768506 C 19.940951,19.194487 18.732919,21.408654 18.456319,22.688876 C 18.179716,23.969098 17.544179,25.863929 17.044012,26.89961 C 16.543845,27.935292 16.293395,31.276208 16.487455,34.323867 C 16.914526,41.030898 20.201867,46.589906 25.497717,49.560531 C 29.735427,51.937609 35.309481,52.99228 36.634104,51.667655 C 37.162923,51.138837 38.703287,50.706167 40.057137,50.706167 C 42.60824,50.706167 48.568106,46.129139 48.568106,44.169955 C 48.568106,43.602707 49.351857,42.42931 50.309775,41.562406 C 51.632997,40.364907 52.051444,38.880265 52.051444,35.382991 C 52.051444,32.851217 51.659568,30.537573 51.180609,30.24156 C 50.70165,29.945547 50.309775,28.815103 50.309775,27.729461 C 50.309775,26.64382 49.345652,24.849821 48.167281,23.742799 C 44.07949,19.902519 35.505591,22.8926 35.505591,28.158467 C 35.505591,31.934004 37.297409,35.020999 39.791349,35.542087 C 41.026374,35.800136 42.879409,36.180253 43.909206,36.386792 C 46.655911,36.937681 48.045281,41.412943 46.034539,43.23264 C 42.775059,46.182427 30.24013,43.373497 28.982644,39.411511 C 28.711219,38.556325 27.521133,36.73105 26.338008,35.355345 C 23.918023,32.541454 23.694058,30.011101 25.185254,22.331581 C 26.346304,16.352292 27.182465,15.003981 29.734087,14.996593 C 30.753099,14.993642 32.709287,14.405829 34.081173,13.690341 C 35.642214,12.876202 39.001544,12.389455 43.059354,12.389455 L 49.543198,12.389455 L 54.107685,16.706355 C 59.67764,21.974189 62.501456,27.32725 62.501456,32.618292 C 62.501456,36.606857 60.184154,45.054458 57.853921,49.560631 C 56.268922,52.625682 46.563021,60.285346 44.264159,60.285346 C 43.335151,60.285346 42.332861,60.677221 42.036848,61.15618 C 41.338189,62.286635 32.727211,62.096166 27.517398,60.835022 z"
       id="path3141" />
  </g>
</svg>
