<?xml version="1.0" encoding="UTF-8" standalone="no"?>
<!-- Created with Inkscape (http://www.inkscape.org/) -->

<svg
   xmlns:dc="http://purl.org/dc/elements/1.1/"
   xmlns:cc="http://creativecommons.org/ns#"
   xmlns:rdf="http://www.w3.org/1999/02/22-rdf-syntax-ns#"
   xmlns:svg="http://www.w3.org/2000/svg"
   xmlns="http://www.w3.org/2000/svg"
   xmlns:sodipodi="http://sodipodi.sourceforge.net/DTD/sodipodi-0.dtd"
   xmlns:inkscape="http://www.inkscape.org/namespaces/inkscape"
   width="64px"
   height="64px"
   id="svg2678"
   sodipodi:version="0.32"
   inkscape:version="0.47 r22583"
   sodipodi:docname="gupta_allahabad_nn.svg"
   inkscape:output_extension="org.inkscape.output.svg.inkscape"
   version="1.1">
  <defs
     id="defs2680">
    <inkscape:perspective
       sodipodi:type="inkscape:persp3d"
       inkscape:vp_x="0 : 32 : 1"
       inkscape:vp_y="0 : 1000 : 0"
       inkscape:vp_z="64 : 32 : 1"
       inkscape:persp3d-origin="32 : 21.333333 : 1"
       id="perspective2686" />
    <inkscape:perspective
       id="perspective2695"
       inkscape:persp3d-origin="372.04724 : 350.78739 : 1"
       inkscape:vp_z="744.09448 : 526.18109 : 1"
       inkscape:vp_y="0 : 1000 : 0"
       inkscape:vp_x="0 : 526.18109 : 1"
       sodipodi:type="inkscape:persp3d" />
    <inkscape:perspective
       id="perspective2750"
       inkscape:persp3d-origin="372.04724 : 350.78739 : 1"
       inkscape:vp_z="744.09448 : 526.18109 : 1"
       inkscape:vp_y="0 : 1000 : 0"
       inkscape:vp_x="0 : 526.18109 : 1"
       sodipodi:type="inkscape:persp3d" />
    <inkscape:perspective
       id="perspective2785"
       inkscape:persp3d-origin="372.04724 : 350.78739 : 1"
       inkscape:vp_z="744.09448 : 526.18109 : 1"
       inkscape:vp_y="0 : 1000 : 0"
       inkscape:vp_x="0 : 526.18109 : 1"
       sodipodi:type="inkscape:persp3d" />
    <inkscape:perspective
       id="perspective2820"
       inkscape:persp3d-origin="372.04724 : 350.78739 : 1"
       inkscape:vp_z="744.09448 : 526.18109 : 1"
       inkscape:vp_y="0 : 1000 : 0"
       inkscape:vp_x="0 : 526.18109 : 1"
       sodipodi:type="inkscape:persp3d" />
    <inkscape:perspective
       id="perspective2855"
       inkscape:persp3d-origin="372.04724 : 350.78739 : 1"
       inkscape:vp_z="744.09448 : 526.18109 : 1"
       inkscape:vp_y="0 : 1000 : 0"
       inkscape:vp_x="0 : 526.18109 : 1"
       sodipodi:type="inkscape:persp3d" />
    <inkscape:perspective
       id="perspective2890"
       inkscape:persp3d-origin="372.04724 : 350.78739 : 1"
       inkscape:vp_z="744.09448 : 526.18109 : 1"
       inkscape:vp_y="0 : 1000 : 0"
       inkscape:vp_x="0 : 526.18109 : 1"
       sodipodi:type="inkscape:persp3d" />
    <inkscape:perspective
       id="perspective2925"
       inkscape:persp3d-origin="372.04724 : 350.78739 : 1"
       inkscape:vp_z="744.09448 : 526.18109 : 1"
       inkscape:vp_y="0 : 1000 : 0"
       inkscape:vp_x="0 : 526.18109 : 1"
       sodipodi:type="inkscape:persp3d" />
    <inkscape:perspective
       id="perspective2960"
       inkscape:persp3d-origin="372.04724 : 350.78739 : 1"
       inkscape:vp_z="744.09448 : 526.18109 : 1"
       inkscape:vp_y="0 : 1000 : 0"
       inkscape:vp_x="0 : 526.18109 : 1"
       sodipodi:type="inkscape:persp3d" />
    <inkscape:perspective
       id="perspective2995"
       inkscape:persp3d-origin="372.04724 : 350.78739 : 1"
       inkscape:vp_z="744.09448 : 526.18109 : 1"
       inkscape:vp_y="0 : 1000 : 0"
       inkscape:vp_x="0 : 526.18109 : 1"
       sodipodi:type="inkscape:persp3d" />
    <inkscape:perspective
       id="perspective3030"
       inkscape:persp3d-origin="372.04724 : 350.78739 : 1"
       inkscape:vp_z="744.09448 : 526.18109 : 1"
       inkscape:vp_y="0 : 1000 : 0"
       inkscape:vp_x="0 : 526.18109 : 1"
       sodipodi:type="inkscape:persp3d" />
    <inkscape:perspective
       id="perspective3065"
       inkscape:persp3d-origin="372.04724 : 350.78739 : 1"
       inkscape:vp_z="744.09448 : 526.18109 : 1"
       inkscape:vp_y="0 : 1000 : 0"
       inkscape:vp_x="0 : 526.18109 : 1"
       sodipodi:type="inkscape:persp3d" />
    <inkscape:perspective
       id="perspective3100"
       inkscape:persp3d-origin="372.04724 : 350.78739 : 1"
       inkscape:vp_z="744.09448 : 526.18109 : 1"
       inkscape:vp_y="0 : 1000 : 0"
       inkscape:vp_x="0 : 526.18109 : 1"
       sodipodi:type="inkscape:persp3d" />
    <inkscape:perspective
       id="perspective3135"
       inkscape:persp3d-origin="372.04724 : 350.78739 : 1"
       inkscape:vp_z="744.09448 : 526.18109 : 1"
       inkscape:vp_y="0 : 1000 : 0"
       inkscape:vp_x="0 : 526.18109 : 1"
       sodipodi:type="inkscape:persp3d" />
    <inkscape:perspective
       id="perspective3170"
       inkscape:persp3d-origin="372.04724 : 350.78739 : 1"
       inkscape:vp_z="744.09448 : 526.18109 : 1"
       inkscape:vp_y="0 : 1000 : 0"
       inkscape:vp_x="0 : 526.18109 : 1"
       sodipodi:type="inkscape:persp3d" />
  </defs>
  <sodipodi:namedview
     id="base"
     pagecolor="#ffffff"
     bordercolor="#666666"
     borderopacity="1.0"
     inkscape:pageopacity="0.0"
     inkscape:pageshadow="2"
     inkscape:zoom="5.5"
     inkscape:cx="32"
     inkscape:cy="32"
     inkscape:current-layer="layer1"
     showgrid="true"
     inkscape:document-units="px"
     inkscape:grid-bbox="true"
     inkscape:window-width="640"
     inkscape:window-height="688"
     inkscape:window-x="56"
     inkscape:window-y="56"
     inkscape:window-maximized="0" />
  <metadata
     id="metadata2683">
    <rdf:RDF>
      <cc:Work
         rdf:about="">
        <dc:format>image/svg+xml</dc:format>
        <dc:type
           rdf:resource="http://purl.org/dc/dcmitype/StillImage" />
      </cc:Work>
    </rdf:RDF>
  </metadata>
  <g
     id="layer1"
     inkscape:label="Layer 1"
     inkscape:groupmode="layer">
    <path
       style="fill:#000000"
       d="M 44.163697,55.926091 C 42.292322,54.960742 40.739314,50.527019 41.999708,49.748053 44.592089,48.145874 38.885193,39.122017 33.617693,36.494242 l -2.098372,-1.046806 0,2.609903 c 0,1.860555 -0.372867,2.708141 -1.298654,2.952052 -0.714261,0.188182 -1.936774,1.659646 -2.716696,3.269922 -0.779923,1.610274 -1.729069,2.927773 -2.109214,2.927773 -0.380146,0 -1.540243,0.667879 -2.577996,1.484176 -2.665849,2.096955 -7.622637,1.97494 -11.163037,-0.27479 C 6.9847364,45.449586 6.0121798,43.882192 5.6887766,38.803231 L 5.3952713,34.193823 8.9956757,30.840757 c 1.9802233,-1.844186 5.3476883,-4.175749 7.4832553,-5.18125 3.617701,-1.703346 3.883746,-2.010433 3.895962,-4.497003 0.01758,-3.578896 -1.816095,-7.042587 -4.414605,-8.338895 -2.421027,-1.207767 -3.73525,-0.467962 -3.73525,2.102658 0,4.036464 -5.5741979,4.678825 -8.9783655,1.034651 C 0.68695497,13.220732 0.68314297,13.181892 2.5798287,9.1669989 4.6896147,4.7010182 7.9676051,2.6818182 13.10794,2.6818182 c 5.451574,0 8.926311,1.5436272 11.086538,4.9251187 0.967552,1.514546 2.651269,4.1149191 3.741594,5.7786121 1.090327,1.663691 2.00866,3.756549 2.040742,4.650796 0.03208,0.894246 0.39227,1.832287 0.800418,2.084536 0.408148,0.25225 0.742089,1.632202 0.742089,3.066561 0,2.08743 0.259186,2.556363 1.298654,2.349577 1.082615,-0.215371 1.255455,-0.914612 1.03898,-4.203316 -0.461062,-7.004543 0.422397,-10.272561 3.686201,-13.6356881 3.800757,-3.916421 6.001913,-5.0161967 10.039712,-5.0161967 5.06039,0 12.135788,3.6488827 12.135788,6.2585947 0,0.442899 0.667879,1.2223671 1.484176,1.7321531 2.204513,1.376739 1.999369,5.661185 -0.385233,8.045792 -2.386714,2.386713 -5.596175,2.194666 -6.664601,-0.398796 -2.442391,-5.928576 -3.776634,-7.853544 -5.590119,-8.065093 -4.339447,-0.5062131 -8.686354,9.620171 -5.643715,13.147374 1.143806,1.325966 3.441912,7.83381 3.441912,9.746904 0,0.693614 0.446828,1.631952 0.992951,2.085194 1.925815,1.598285 3.654566,9.260095 3.341096,14.807723 -0.163118,2.886796 -0.454329,5.406472 -0.647136,5.599278 -0.960464,0.960464 -4.264755,1.120589 -5.88429,0.285149 z M 20.015438,40.282453 c 8.37e-4,-0.06886 0.418946,-0.872034 0.92913,-1.784829 1.678878,-3.003755 1.202195,-4.648118 -1.347439,-4.648118 -2.786678,0 -5.145828,1.180579 -5.145828,2.575106 0,0.571292 0.338958,1.930243 0.753243,3.019891 0.644197,1.694365 1.046841,1.90749 2.781308,1.472165 1.115435,-0.279957 2.028749,-0.565352 2.029586,-0.634215 z"
       id="path3176" />
  </g>
</svg>
