<?xml version="1.0" encoding="utf-8"?>
<!-- Generator: Adobe Illustrator 13.0.2, SVG Export Plug-In . SVG Version: 6.00 Build 14948)  -->
<!DOCTYPE svg PUBLIC "-//W3C//DTD SVG 1.0//EN" "http://www.w3.org/TR/2001/REC-SVG-20010904/DTD/svg10.dtd">
<svg version="1.0" id="Layer_1" xmlns="http://www.w3.org/2000/svg" xmlns:xlink="http://www.w3.org/1999/xlink" x="0px" y="0px"
	 width="343.105px" height="151.248px" viewBox="0 0 343.105 151.248" enable-background="new 0 0 343.105 151.248"
	 xml:space="preserve">
<g>
	<path d="M60.695,105.548H43.201c-4.881,0-8.064-1.545-9.55-4.642c-1.49-3.093-3.186-8.747-5.088-16.959l-6.605,7.855
		c-1.071,1.428-2.084,2.708-3.035,3.838c-0.954,1.132-1.964,1.696-3.035,1.696c-4.047,0-7.707-0.536-10.979-1.606
		C1.634,94.658,0,92.159,0,88.232c0-5.713,1.428-10.739,4.284-15.085c2.856-4.343,9.461-9.431,19.815-15.263
		c-0.24-1.902-0.508-3.955-0.803-6.159c-0.298-2.201-0.446-3.955-0.446-5.266c0-1.902,0.951-3.718,2.856-5.445
		c1.902-1.724,3.749-3.42,5.534-5.088c1.071,5.355,2.053,11.576,2.945,18.655c0.893,7.082,1.786,13.45,2.678,19.101
		c0.893,5.654,1.785,9.135,2.678,10.443c0.893,1.311,3.481,1.963,7.765,1.963h13.389V105.548z M2.32,24.68l7.141-12.496
		l10.711,7.141l5.891-9.506l10.711,8.053L30.526,29.5l-10.711-7.498l-6.784,10.354L2.32,24.68z M26.777,75.021l-1.606-10.711
		c-2.619,1.668-5.506,3.57-8.658,5.712c-3.155,2.142-4.731,4.106-4.731,5.891c0,0.954,1.397,1.757,4.195,2.41
		c2.795,0.655,4.968,0.981,6.516,0.981c1.188,0,2.379,0,3.57,0c0.831-0.357,1.25-1.009,1.25-1.963L26.777,75.021z"/>
	<path d="M44.271,86.268h15.531c7.498,0,12.287-0.455,14.371-1.364c2.081-0.91,4.848-3.727,8.301-8.455h1.071
		c0.714,4.533,1.278,7.082,1.696,7.648c0.416,0.566,2.41,1.289,5.98,2.17h19.994v19.458H90.864
		c-5.355-0.483-8.362-1.146-9.015-1.995c-0.655-0.848-2.352-3.813-5.088-8.895c-2.739,4.234-4.82,7.11-6.248,8.622
		c-1.428,1.512-5.177,2.268-11.247,2.268H44.271V86.268z M58.731,127.299l6.605-11.754l11.247,7.854l6.069-10.354l10.711,8.033
		l-6.783,12.139l-10.89-7.498l-5.712,9.595L58.731,127.299z"/>
	<path d="M94.969,86.089h21.422c3.57,0,6.812-0.295,9.729-0.893c2.915-0.597,4.374-1.729,4.374-3.397
		c0-0.594-1.133-2.231-3.392-4.915c-2.262-2.681-3.392-4.499-3.392-5.453c0-1.191,0.268-2.382,0.803-3.573s0.92-2.086,1.16-2.683
		l6.249-13.227c2.022,5.004,3.629,9.47,4.82,13.4c1.188,3.933,1.785,7.743,1.785,11.434c0,11.913-2.382,19.687-7.141,23.318
		c-4.762,3.632-11.188,5.448-19.28,5.448H94.969V86.089z M120.497,123.907l6.784-10.683l11.247,7.478l-7.319,10.329L120.497,123.907
		z"/>
	<path d="M222.608,105.727h-20.529c-2.5,12.398-5.922,23.084-10.265,32.06c-4.346,8.974-11.397,13.461-21.154,13.461
		c-3.096,0-6.042-0.507-8.836-1.517c-2.798-1.013-7.944-3.78-15.442-8.301l1.25-2.321c2.5,0.357,4.999,0.714,7.498,1.071
		c8.568,0,15.857-2.639,21.868-7.908c6.008-5.275,12.585-12.533,19.726-21.773c-2.739-4.031-4.642-6.873-5.712-8.533
		c-1.071-1.657-3.213-5.45-6.427-11.375l9.64-15.972c2.974,4.734,5.355,7.858,7.141,9.375c1.785,1.518,3.927,2.273,6.426,2.273
		h14.817V105.727z"/>
	<path d="M207.969,86.089h13.567c2.856-0.357,5.651-0.742,8.39-1.16c2.736-0.416,5.593-1.16,8.569-2.231
		c-1.785-1.665-3.632-2.915-5.534-3.749c-1.905-0.831-4.641-1.785-8.212-2.856c1.309-6.427,3.451-12.02,6.427-16.781
		c2.974-4.759,8.686-7.141,17.138-7.141c5.593,0,10.471,1.637,14.638,4.909c4.165,3.274,6.248,7.528,6.248,12.764
		c0,3.81-0.714,6.488-2.142,8.033c-1.428,1.548-4.167,3.512-8.212,5.891c4.765,1.548,9.347,2.32,13.746,2.32h13.21v19.458h-13.21
		c-5.595-0.951-10.326-3.183-14.192-6.694c-3.869-3.509-7.291-6.633-10.265-9.372c-2.619,1.668-5.891,4.167-9.818,7.498
		c-3.927,3.333-6.426,5.328-7.498,5.98c-1.071,0.655-2.41,1.191-4.017,1.606c-1.607,0.418-3.364,0.745-5.266,0.982h-13.567V86.089z"
		/>
	<path d="M272.056,86.089h18.03c4.401,0,7.168-0.625,8.301-1.874c1.13-1.25,1.696-3.961,1.696-8.128
		c0-3.453-0.923-11.012-2.767-22.683c-1.847-11.668-3.721-23.754-5.624-36.258c0-4.762,0.653-8.125,1.964-10.089
		c1.308-1.963,3.688-4.318,7.141-7.057c3.093,5.358,6.365,10.12,9.818,14.287c-2.619,2.979-4.404,5.241-5.355,6.79
		c-0.954,1.548-1.428,4.284-1.428,8.211c0,2.382,0.92,9.975,2.767,22.772c1.844,12.8,2.767,20.809,2.767,24.022
		c0,8.931-1.757,16.075-5.267,21.43c-3.512,5.358-8.778,8.036-15.798,8.036h-16.245V86.089z"/>
	<path d="M335.607,105.548c0-6.44-0.445-13.478-1.338-21.112s-2.293-18.549-4.195-32.744c-1.906-14.195-2.857-22.725-2.857-25.586
		c0-4.295,1.488-8.231,4.463-11.81c2.5-2.504,4.344-4.471,5.535-5.905c0,4.413,0.625,13.509,1.875,27.285
		c1.248,13.779,2.588,27.765,4.016,41.96c0,3.938-0.418,8.739-1.25,14.404c-0.834,5.668-1.904,10.17-3.213,13.509H335.607z"/>
</g>
</svg>
