<?xml version="1.0" encoding="UTF-8" standalone="no"?>
<svg
   xmlns:svg="http://www.w3.org/2000/svg"
   xmlns="http://www.w3.org/2000/svg"
   height="86"
   width="320"
   version="1.1"
   id="svg2">
  <g
     style="font-family:Georgia"
     aria-label="Гг Дд Ии Йй Мм Тт Цц Бб Вв"
     id="g40">
    <path
       d="M 17.068018,12.672168 H 16.236719 Q 16.125879,12.239892 15.937452,11.752197 15.749024,11.264502 15.372168,10.643798 15.017481,10.067431 14.640625,9.6905757 14.274854,9.3137202 13.787159,9.2472163 13.410303,9.1917964 12.856104,9.1696284 12.312989,9.1474604 11.814209,9.1474604 H 9.5530764 V 21.761035 Q 9.5530764,22.137891 9.7304201,22.426074 9.9077639,22.703174 10.262451,22.880518 10.484131,22.980273 11.060498,23.091113 11.647949,23.201953 12.013721,23.213037 V 24 H 4.9532227 V 23.213037 Q 5.2857422,23.190869 5.8399415,23.146533 6.3941407,23.091113 6.5604005,23.013525 6.89292,22.869434 7.0370118,22.592334 7.1921876,22.30415 7.1921876,21.905127 V 10.555127 Q 7.1921876,10.189355 7.0702638,9.9122554 6.9483399,9.6240718 6.5604005,9.446728 6.2611329,9.3026362 5.7512696,9.1917964 5.2524903,9.0809565 4.9532227,9.0587886 V 8.2718256 H 17.068018 Z"
       id="path4" />
    <path
       d="M 23.585401,24 H 18.076661 V 23.268457 Q 18.331592,23.246289 18.597608,23.224121 18.874708,23.201953 19.074219,23.135449 19.384571,23.035693 19.528663,22.791846 19.683839,22.536914 19.683839,22.137891 V 15.04414 Q 19.683839,14.678369 19.528663,14.434521 19.373487,14.17959 19.063135,14.046582 18.774952,13.913574 18.4646,13.869238 18.154249,13.824902 17.932569,13.802734 V 13.071191 H 27.043604 V 16.695654 H 26.356397 Q 26.278809,16.451806 26.079298,15.986279 25.879786,15.520752 25.624854,15.110644 25.369923,14.667285 25.059571,14.345849 24.760304,14.01333 24.427784,13.968994 24.117432,13.935742 23.674073,13.924658 23.230714,13.90249 22.920362,13.90249 H 21.74546 V 22.027051 Q 21.74546,22.403906 21.900635,22.647754 22.055811,22.891602 22.366163,23.024609 22.610011,23.135449 22.94253,23.190869 23.286134,23.246289 23.585401,23.268457 Z"
       id="path6" />
    <path
       d="M 43.569826,22.038135 V 9.2028804 H 39.1584 Q 39.1584,13.159863 38.160841,16.85083 37.174367,20.541797 35.666945,23.035693 H 42.539015 Q 43.071046,23.035693 43.314894,22.791846 43.569826,22.547998 43.569826,22.038135 Z M 36.054884,23.966748 Q 35.611525,24.022168 35.190333,24.465527 34.780226,24.919971 34.447706,25.496338 34.137355,26.028369 33.893507,26.67124 33.649659,27.325195 33.549904,27.668799 H 32.718605 V 23.035693 H 34.248195 Q 35.589357,21.018408 36.686671,17.538037 37.79507,14.057666 37.79507,11.342089 37.79507,10.510791 37.639894,10.078515 37.495802,9.6351558 37.074611,9.435644 36.797511,9.3026362 36.198976,9.2028804 35.600441,9.0920405 35.323341,9.0587886 V 8.2718256 H 47.992336 V 9.0587886 Q 47.681984,9.0698725 47.227541,9.1585444 46.784181,9.2472163 46.562502,9.3248042 46.185646,9.457812 46.052638,9.7681636 45.930714,10.078515 45.930714,10.444287 V 21.949463 Q 45.930714,22.570166 46.241066,22.814014 46.551418,23.046777 47.238625,23.046777 H 48.169679 V 27.668799 H 47.338381 Q 47.227541,27.236524 47.050197,26.715576 46.872853,26.194629 46.495998,25.496338 46.163478,24.875635 45.797707,24.454443 45.431935,24.033252 44.94424,23.966748 Z"
       id="path8" />
    <path
       d="M 50.37539,23.102197 Q 51.472704,21.650195 52.281835,19.289306 53.10205,16.928418 53.10205,15.420996 53.10205,14.844629 52.957958,14.567529 52.813867,14.290429 52.503515,14.135254 52.292919,14.024414 51.816308,13.935742 51.339697,13.835986 51.040429,13.802734 V 13.071191 H 60.993847 V 13.802734 Q 60.672412,13.824902 60.428564,13.858154 60.1958,13.891406 59.996289,13.935742 59.685937,14.024414 59.530761,14.290429 59.38667,14.545361 59.38667,14.9333 V 22.015967 Q 59.38667,22.603418 59.608349,22.85835 59.841113,23.102197 60.572656,23.102197 H 61.282031 V 27.203272 H 60.483984 Q 60.25122,26.083789 59.697021,25.086231 59.142822,24.088672 58.499951,23.955664 H 52.060156 Q 51.46162,24.05542 50.840917,25.064063 50.231298,26.072705 50.009618,27.203272 H 49.211572 V 23.102197 Z M 51.638964,23.102197 H 56.416162 Q 56.903857,23.102197 57.114453,22.935937 57.325048,22.758594 57.325048,22.403906 V 13.980078 H 54.276953 Q 54.210449,16.784326 53.501074,19.123047 52.802783,21.450684 51.638964,23.102197 Z"
       id="path10" />
    <path
       d="M 84.802248,24 H 78.295949 V 23.213037 Q 78.561965,23.190869 79.071828,23.146533 79.592775,23.102197 79.781203,23.013525 80.113723,22.880518 80.268898,22.614502 80.424074,22.337402 80.424074,21.905127 V 12.0958 L 72.820461,21.583691 V 21.838623 Q 72.820461,22.226562 72.942385,22.47041 73.075392,22.703174 73.452248,22.902686 73.640676,23.002441 74.150539,23.102197 74.660402,23.201953 74.948586,23.213037 V 24 H 68.442287 V 23.213037 Q 68.708302,23.190869 69.207082,23.146533 69.716945,23.102197 69.905373,23.013525 70.237892,22.880518 70.393068,22.614502 70.548244,22.337402 70.548244,21.905127 V 10.555127 Q 70.548244,10.200439 70.404152,9.9122554 70.26006,9.6129878 69.905373,9.446728 69.606105,9.3026362 69.17383,9.1917964 68.752638,9.0809565 68.442287,9.0587886 V 8.2718256 H 74.948586 V 9.0587886 Q 74.638234,9.0698725 74.172707,9.1585444 73.718263,9.2472163 73.496584,9.3248042 73.119728,9.457812 72.98672,9.7681636 72.864797,10.078515 72.864797,10.444287 V 20.009765 L 80.46841,10.532959 Q 80.46841,10.133935 80.324318,9.8790034 80.180227,9.6129878 79.825539,9.446728 79.548439,9.3137202 79.060744,9.2028804 78.573049,9.0809565 78.295949,9.0587886 V 8.2718256 H 84.802248 V 9.0587886 Q 84.491897,9.0698725 84.037453,9.1585444 83.594094,9.2472163 83.372414,9.3248042 82.995559,9.457812 82.862551,9.7681636 82.740627,10.078515 82.740627,10.444287 V 21.783203 Q 82.740627,22.171143 82.862551,22.437158 82.995559,22.703174 83.372414,22.902686 83.560842,23.002441 84.037453,23.102197 84.525149,23.201953 84.802248,23.213037 Z"
       id="path12" />
    <path
       d="M 99.056253,24 H 93.747025 V 23.268457 Q 94.001956,23.246289 94.267972,23.224121 94.545072,23.201953 94.744583,23.135449 95.054935,23.035693 95.221195,22.791846 95.387455,22.536914 95.387455,22.137891 V 16.396386 L 90.355325,21.838623 V 22.027051 Q 90.355325,22.403906 90.510501,22.647754 90.665677,22.891602 90.976029,23.024609 91.219876,23.135449 91.485892,23.190869 91.762992,23.246289 92.062259,23.268457 V 24 H 86.75303 V 23.268457 Q 87.007962,23.246289 87.273978,23.224121 87.551077,23.201953 87.750589,23.135449 88.060941,23.035693 88.205032,22.791846 88.360208,22.536914 88.360208,22.137891 V 15.04414 Q 88.360208,14.678369 88.205032,14.434521 88.049857,14.17959 87.739505,14.046582 87.451321,13.913574 87.174222,13.869238 86.908206,13.824902 86.675443,13.802734 V 13.071191 H 91.984671 V 13.802734 Q 91.663236,13.824902 91.419388,13.858154 91.186624,13.891406 90.987113,13.935742 90.676761,14.024414 90.521585,14.290429 90.377493,14.545361 90.377493,14.9333 V 20.586133 L 95.409623,15.132812 Q 95.409623,14.645117 95.254447,14.412353 95.099271,14.17959 94.788919,14.046582 94.500736,13.913574 94.212552,13.869238 93.935453,13.824902 93.702689,13.802734 V 13.071191 H 99.011918 V 13.802734 Q 98.690482,13.824902 98.446634,13.858154 98.213871,13.891406 98.014359,13.935742 97.704007,14.024414 97.548832,14.290429 97.40474,14.545361 97.40474,14.9333 V 22.027051 Q 97.40474,22.41499 97.537748,22.658838 97.670755,22.891602 97.992191,23.024609 98.224955,23.135449 98.49097,23.190869 98.76807,23.246289 99.056253,23.268457 Z"
       id="path14" />
    <path
       d="M 122.79815,24 H 116.29185 V 23.213037 Q 116.55787,23.190869 117.06773,23.146533 117.58868,23.102197 117.77711,23.013525 118.10963,22.880518 118.2648,22.614502 118.41998,22.337402 118.41998,21.905127 V 12.0958 L 110.81636,21.583691 V 21.838623 Q 110.81636,22.226562 110.93829,22.47041 111.0713,22.703174 111.44815,22.902686 111.63658,23.002441 112.14644,23.102197 112.65631,23.201953 112.94449,23.213037 V 24 H 106.43819 V 23.213037 Q 106.70421,23.190869 107.20298,23.146533 107.71285,23.102197 107.90128,23.013525 108.2338,22.880518 108.38897,22.614502 108.54415,22.337402 108.54415,21.905127 V 10.555127 Q 108.54415,10.200439 108.40006,9.9122554 108.25596,9.6129878 107.90128,9.446728 107.60201,9.3026362 107.16973,9.1917964 106.74854,9.0809565 106.43819,9.0587886 V 8.2718256 H 112.94449 V 9.0587886 Q 112.63414,9.0698725 112.16861,9.1585444 111.71417,9.2472163 111.49249,9.3248042 111.11563,9.457812 110.98262,9.7681636 110.8607,10.078515 110.8607,10.444287 V 20.009765 L 118.46431,10.532959 Q 118.46431,10.133935 118.32022,9.8790034 118.17613,9.6129878 117.82144,9.446728 117.54434,9.3137202 117.05665,9.2028804 116.56895,9.0809565 116.29185,9.0587886 V 8.2718256 H 122.79815 V 9.0587886 Q 122.4878,9.0698725 122.03336,9.1585444 121.59,9.2472163 121.36832,9.3248042 120.99146,9.457812 120.85845,9.7681636 120.73653,10.078515 120.73653,10.444287 V 21.783203 Q 120.73653,22.171143 120.85845,22.437158 120.99146,22.703174 121.36832,22.902686 121.55674,23.002441 122.03336,23.102197 122.52105,23.201953 122.79815,23.213037 Z M 117.12315,5.7114252 Q 117.0234,5.4786615 116.8793,5.090722 116.73521,4.6916986 116.73521,4.381347 116.73521,3.8049798 117.10098,3.5500481 117.47784,3.2951165 117.91011,3.2951165 118.39781,3.2951165 118.69708,3.649804 119.00743,4.0044915 119.00743,4.5586908 119.00743,4.9244622 118.77466,5.4121576 118.55299,5.8998529 118.09854,6.2545404 117.56651,6.6646479 116.8128,6.9195795 116.07017,7.1634272 114.75118,7.1634272 113.57628,7.1634272 112.74498,6.9084955 111.92476,6.6424799 111.43707,6.2545404 110.96046,5.8776849 110.73878,5.4232416 110.52818,4.9687982 110.52818,4.5586908 110.52818,4.0044915 110.82745,3.649804 111.1378,3.2951165 111.61441,3.2951165 112.05777,3.2951165 112.42354,3.5389642 112.8004,3.7828118 112.8004,4.381347 112.8004,4.7249505 112.66739,5.079638 112.53438,5.4232416 112.41246,5.7114252 112.87798,6.1547846 113.52086,6.2877924 114.16373,6.4097162 114.75118,6.4097162 115.29429,6.4097162 115.9815,6.2767084 116.66871,6.1326166 117.12315,5.7114252 Z"
       id="path16" />
    <path
       d="M 137.05216,24 H 131.74293 V 23.268457 Q 131.99786,23.246289 132.26388,23.224121 132.54097,23.201953 132.74049,23.135449 133.05084,23.035693 133.2171,22.791846 133.38336,22.536914 133.38336,22.137891 V 16.396386 L 128.35123,21.838623 V 22.027051 Q 128.35123,22.403906 128.5064,22.647754 128.66158,22.891602 128.97193,23.024609 129.21578,23.135449 129.48179,23.190869 129.75889,23.246289 130.05816,23.268457 V 24 H 124.74893 V 23.268457 Q 125.00387,23.246289 125.26988,23.224121 125.54698,23.201953 125.74649,23.135449 126.05684,23.035693 126.20094,22.791846 126.35611,22.536914 126.35611,22.137891 V 15.04414 Q 126.35611,14.678369 126.20094,14.434521 126.04576,14.17959 125.73541,14.046582 125.44722,13.913574 125.17012,13.869238 124.90411,13.824902 124.67135,13.802734 V 13.071191 H 129.98057 V 13.802734 Q 129.65914,13.824902 129.41529,13.858154 129.18253,13.891406 128.98302,13.935742 128.67266,14.024414 128.51749,14.290429 128.3734,14.545361 128.3734,14.9333 V 20.586133 L 133.40553,15.132812 Q 133.40553,14.645117 133.25035,14.412353 133.09517,14.17959 132.78482,14.046582 132.49664,13.913574 132.20846,13.869238 131.93136,13.824902 131.69859,13.802734 V 13.071191 H 137.00782 V 13.802734 Q 136.68639,13.824902 136.44254,13.858154 136.20977,13.891406 136.01026,13.935742 135.69991,14.024414 135.54473,14.290429 135.40064,14.545361 135.40064,14.9333 V 22.027051 Q 135.40064,22.41499 135.53365,22.658838 135.66666,22.891602 135.98809,23.024609 136.22086,23.135449 136.48687,23.190869 136.76397,23.246289 137.05216,23.268457 Z M 134.61368,8.5821772 Q 134.61368,8.9257807 134.40308,9.4023921 134.20357,9.8790034 133.80455,10.233691 133.33902,10.643798 132.67398,10.89873 132.02003,11.153662 130.88946,11.153662 129.8254,11.153662 129.12711,10.89873 128.42882,10.632714 127.98546,10.233691 127.56427,9.8457515 127.37584,9.4023921 127.19849,8.9479487 127.19849,8.5821772 127.19849,8.0501459 127.50885,7.7176264 127.83028,7.3740229 128.27364,7.3740229 128.68375,7.3740229 129.03844,7.6178705 129.39312,7.8617182 129.39312,8.4159174 129.39312,8.737353 129.26012,9.1363765 129.12711,9.5243159 129.04952,9.7016597 129.34879,10.067431 129.83648,10.244775 130.33526,10.422119 130.88946,10.422119 131.37716,10.422119 131.92027,10.255859 132.46339,10.078515 132.76265,9.7016597 132.67398,9.491064 132.54097,9.1031245 132.41905,8.704101 132.41905,8.4159174 132.41905,7.8617182 132.77374,7.6178705 133.12843,7.3740229 133.52745,7.3740229 133.98189,7.3740229 134.29224,7.7176264 134.61368,8.0501459 134.61368,8.5821772 Z"
       id="path18" />
    <path
       d="M 163.36553,24 H 156.41587 V 23.213037 Q 156.79273,23.201953 157.38018,23.135449 157.97871,23.068945 158.20039,22.947021 158.544,22.736426 158.69917,22.47041 158.86543,22.19331 158.86543,21.783203 V 10.344531 H 158.69917 L 153.33452,23.745068 H 152.78033 L 147.67061,10.067431 H 147.52652 V 19.455566 Q 147.52652,20.818896 147.69278,21.528271 147.87012,22.237646 148.22481,22.547998 148.46866,22.780762 149.23345,22.991357 149.99825,23.201953 150.23101,23.213037 V 24 H 143.87989 V 23.213037 Q 144.37867,23.168701 144.92178,23.046777 145.47598,22.924853 145.77525,22.681006 146.16319,22.370654 146.30728,21.727783 146.45137,21.084912 146.45137,19.57749 V 11.530517 Q 146.45137,10.832226 146.28511,10.388867 146.11885,9.9455073 145.8085,9.6684077 145.4649,9.3691401 144.96612,9.2250483 144.46734,9.0809565 143.97964,9.0587886 V 8.2718256 H 149.34429 L 153.84439,20.065185 157.69053,10.200439 Q 157.90113,9.6573237 158.04522,9.0698725 158.20039,8.4713374 158.21148,8.2718256 H 163.34336 V 9.0587886 Q 163.03301,9.0698725 162.54532,9.1585444 162.0687,9.2472163 161.84703,9.3248042 161.47017,9.457812 161.33716,9.7681636 161.20415,10.078515 161.20415,10.444287 V 21.783203 Q 161.20415,22.171143 161.33716,22.437158 161.47017,22.703174 161.84703,22.902686 162.04654,23.013525 162.5564,23.113281 163.06626,23.201953 163.36553,23.213037 Z"
       id="path20" />
    <path
       d="M 179.86958,24 H 174.51602 V 23.268457 Q 174.77095,23.246289 175.03697,23.224121 175.31407,23.201953 175.51358,23.135449 175.83501,23.035693 176.00127,22.780762 176.17862,22.514746 176.17862,22.137891 V 14.223925 H 175.9126 L 172.21055,23.822656 H 171.52334 L 168.04297,14.035498 H 167.79912 V 21.694531 Q 167.79912,22.259814 167.9543,22.58125 168.12056,22.902686 168.41983,23.024609 168.65259,23.135449 168.91861,23.190869 169.19571,23.246289 169.48389,23.268457 V 24 H 165.22764 V 23.268457 Q 165.48257,23.246289 165.74859,23.224121 166.02569,23.201953 166.2252,23.135449 166.55772,23.024609 166.69073,22.703174 166.83482,22.370654 166.83482,21.805371 V 15.15498 Q 166.83482,14.722705 166.67964,14.456689 166.52447,14.17959 166.21411,14.046582 165.92593,13.913574 165.64883,13.869238 165.38282,13.824902 165.15005,13.802734 V 13.071191 H 169.69449 L 172.43223,20.896484 174.84854,14.412353 Q 174.95938,14.090918 175.09239,13.647558 175.22539,13.204199 175.23648,13.071191 H 179.82525 V 13.802734 Q 179.50381,13.824902 179.25996,13.858154 179.0272,13.891406 178.82769,13.935742 178.51734,14.024414 178.36216,14.290429 178.21807,14.545361 178.21807,14.9333 V 22.027051 Q 178.21807,22.41499 178.35108,22.658838 178.48409,22.891602 178.80552,23.024609 179.03828,23.135449 179.3043,23.190869 179.5814,23.246289 179.86958,23.268457 Z"
       id="path22" />
    <path
       d="M 199.9981,12.53916 H 199.2333 Q 199.13355,12.140136 198.86753,11.597021 198.6126,11.042822 198.29117,10.555127 197.95865,10.045263 197.55962,9.6684077 197.17168,9.2804683 196.80591,9.2250483 196.46231,9.1807124 195.94136,9.1585444 195.42041,9.1363765 194.97705,9.1363765 H 194.33418 V 21.716699 Q 194.33418,22.082471 194.48936,22.392822 194.64453,22.69209 195.03247,22.85835 195.23199,22.935937 195.86377,23.068945 196.50664,23.201953 196.86133,23.213037 V 24 H 189.43506 V 23.213037 Q 189.74541,23.190869 190.3772,23.124365 191.02007,23.057861 191.26392,22.958105 191.62969,22.814014 191.79595,22.547998 191.97329,22.270898 191.97329,21.816455 V 9.1363765 H 191.33042 Q 190.98682,9.1363765 190.47696,9.1585444 189.96709,9.1696284 189.50157,9.2250483 189.13579,9.2693843 188.73677,9.6684077 188.34883,10.056347 188.01631,10.555127 187.68379,11.053906 187.42886,11.619189 187.17393,12.173388 187.07417,12.53916 H 186.29829 V 8.2718256 H 199.9981 Z"
       id="path24" />
    <path
       d="M 210.62764,16.57373 H 209.95151 Q 209.85176,16.263379 209.65225,15.842187 209.46382,15.420996 209.23105,15.04414 208.98721,14.634033 208.67686,14.323681 208.37759,14.002246 208.04507,13.95791 207.70147,13.924658 207.28027,13.913574 206.85908,13.891406 206.55981,13.891406 V 22.027051 Q 206.55981,22.403906 206.71499,22.647754 206.87017,22.891602 207.18052,23.024609 207.42437,23.135449 207.73472,23.190869 208.04507,23.246289 208.34434,23.268457 V 24 H 202.78018 V 23.268457 Q 203.03511,23.246289 203.35654,23.224121 203.68906,23.201953 203.88857,23.135449 204.19893,23.035693 204.34302,22.791846 204.49819,22.536914 204.49819,22.137891 V 13.891406 Q 204.14351,13.90249 203.70015,13.924658 203.25679,13.935742 203.00186,13.95791 202.71367,13.980078 202.38115,14.323681 202.05972,14.667285 201.81587,15.04414 201.58311,15.420996 201.38359,15.886523 201.18408,16.340967 201.10649,16.57373 H 200.43037 V 13.071191 H 210.62764 Z"
       id="path26" />
    <path
       d="M 230.53447,24 H 217.45537 V 23.213037 Q 217.72139,23.190869 218.22017,23.146533 218.73003,23.102197 218.91846,23.013525 219.25098,22.880518 219.40615,22.614502 219.56133,22.337402 219.56133,21.905127 V 10.555127 Q 219.56133,10.200439 219.41724,9.9122554 219.27314,9.6129878 218.91846,9.446728 218.61919,9.3026362 218.18691,9.1917964 217.76572,9.0809565 217.45537,9.0587886 V 8.2718256 H 223.91733 V 9.0587886 Q 223.60698,9.0698725 223.17471,9.1585444 222.74243,9.2472163 222.50967,9.3248042 222.13281,9.457812 222.02197,9.7681636 221.92222,10.078515 221.92222,10.444287 V 21.827539 Q 221.92222,22.281982 222.2104,22.669922 222.49858,23.057861 223.26338,23.057861 223.72891,23.057861 224.31636,23.080029 224.90381,23.091113 225.6686,23.091113 226.30039,23.091113 226.88784,23.080029 227.48638,23.068945 228.24009,23.057861 228.77212,23.046777 228.96055,22.814014 229.16006,22.570166 229.16006,22.060303 V 10.555127 Q 229.16006,10.200439 229.03814,9.9122554 228.91621,9.6129878 228.56152,9.446728 228.26226,9.3026362 227.84106,9.1917964 227.43096,9.0809565 227.12061,9.0587886 V 8.2718256 H 233.58257 V 9.0587886 Q 233.27222,9.0698725 232.81777,9.1585444 232.37441,9.2472163 232.15273,9.3248042 231.77588,9.457812 231.64287,9.7681636 231.52095,10.078515 231.52095,10.444287 V 21.982715 Q 231.52095,22.603418 231.8313,22.847266 232.14165,23.080029 232.82886,23.080029 H 233.75991 V 27.702051 H 232.92861 Q 232.81777,27.269776 232.64043,26.748828 232.46309,26.227881 232.08623,25.52959 231.75371,24.908887 231.38794,24.487695 231.02217,24.066504 230.53447,24 Z"
       id="path28" />
    <path
       d="M 245.06559,24 H 235.54444 V 23.268457 Q 235.79937,23.246289 236.06539,23.224121 236.34249,23.201953 236.542,23.135449 236.85235,23.035693 236.99644,22.791846 237.15162,22.536914 237.15162,22.137891 V 15.04414 Q 237.15162,14.678369 237.01861,14.434521 236.8856,14.190673 236.56417,14.046582 236.27599,13.913574 235.99889,13.869238 235.73287,13.824902 235.50011,13.802734 V 13.071191 H 240.84259 V 13.802734 Q 240.52115,13.824902 240.28839,13.858154 240.05562,13.891406 239.85611,13.935742 239.54576,14.024414 239.3795,14.290429 239.21324,14.556445 239.21324,14.9333 V 22.071387 Q 239.21324,22.669922 239.49034,22.902686 239.76744,23.124365 240.25514,23.135449 240.53224,23.135449 240.89801,23.157617 241.26378,23.168701 241.72931,23.168701 242.08399,23.168701 242.46085,23.157617 242.84879,23.146533 243.21456,23.135449 243.68009,23.124365 243.77984,22.935937 243.89068,22.736426 243.89068,22.270898 V 15.04414 Q 243.89068,14.678369 243.73551,14.434521 243.58033,14.17959 243.26998,14.046582 242.9818,13.913574 242.71578,13.869238 242.46085,13.824902 242.217,13.802734 V 13.071191 H 247.55948 V 13.802734 Q 247.23805,13.824902 246.9942,13.858154 246.76144,13.891406 246.56192,13.935742 246.25157,14.024414 246.0964,14.290429 245.9523,14.545361 245.9523,14.9333 V 22.049219 Q 245.9523,22.63667 246.17398,22.891602 246.40675,23.135449 247.13829,23.135449 H 247.84767 V 27.236524 H 247.04962 Q 246.82794,26.128125 246.26266,25.130566 245.70846,24.133008 245.06559,24 Z"
       id="path30" />
    <path
       d="M 265.07218,19.178467 Q 265.07218,17.671045 264.05245,16.784326 263.04381,15.886523 261.37013,15.886523 260.60533,15.886523 260.15089,15.908691 259.70753,15.919775 259.47477,15.930859 V 21.694531 Q 259.47477,22.426074 259.90704,22.780762 260.33932,23.124365 261.61398,23.124365 263.29874,23.124365 264.18546,22.115723 265.07218,21.095996 265.07218,19.178467 Z M 267.82101,19.366894 Q 267.82101,20.552881 267.3444,21.450684 266.87887,22.348486 266.08082,22.913769 265.32711,23.456885 264.37389,23.733984 263.43175,24 262.42311,24 H 254.97467 V 23.213037 Q 255.24069,23.190869 255.75055,23.124365 256.26041,23.046777 256.48209,22.947021 256.8257,22.791846 256.96979,22.536914 257.11388,22.270898 257.11388,21.860791 V 10.555127 Q 257.11388,10.178271 256.98087,9.8900874 256.85895,9.6019038 256.48209,9.4245601 256.14957,9.2583003 255.73947,9.1696284 255.32936,9.0809565 255.05226,9.0587886 V 8.2718256 H 266.86779 V 12.117968 H 266.03649 Q 265.80372,11.242334 265.0611,10.289111 264.32955,9.3248042 263.6756,9.2361323 263.33199,9.1917964 262.85538,9.1696284 262.37877,9.1474604 261.76915,9.1474604 H 259.47477 V 14.955468 Q 260.01788,14.944384 260.561,14.9333 261.10411,14.922216 261.61398,14.922216 262.86647,14.922216 263.98595,15.15498 265.11652,15.37666 265.98107,15.908691 266.83453,16.429638 267.32223,17.294189 267.82101,18.147656 267.82101,19.366894 Z"
       id="path32" />
    <path
       d="M 277.17589,21.993799 Q 277.56382,21.240088 277.74117,20.386621 277.91851,19.533154 277.91851,18.424756 277.91851,17.538037 277.77442,16.68457 277.63033,15.820019 277.28673,15.143896 276.93204,14.456689 276.37784,14.06875 275.83472,13.669726 274.97017,13.669726 274.07237,13.669726 273.47383,14.102002 272.8753,14.534277 272.49844,15.221484 272.14376,15.897607 271.98858,16.762158 271.8334,17.615625 271.8334,18.424756 271.8334,19.710498 272.01075,20.597217 272.19918,21.483935 272.54278,22.104639 272.90855,22.780762 273.47383,23.135449 274.03912,23.490137 274.8815,23.490137 275.6463,23.490137 276.22266,23.091113 276.81011,22.681006 277.17589,21.993799 Z M 270.69175,15.897607 270.78043,15.919775 Q 271.31246,14.589697 272.40977,13.714062 273.51817,12.827343 275.00342,12.827343 276.24483,12.827343 277.23131,13.248535 278.21778,13.658642 278.88282,14.412353 279.53677,15.143896 279.86929,16.174707 280.2129,17.205517 280.2129,18.413672 280.2129,19.599658 279.84713,20.696973 279.48135,21.794287 278.78306,22.58125 278.05152,23.412549 277.06505,23.878076 276.07857,24.33252 274.72632,24.33252 273.7066,24.33252 272.75338,23.922412 271.81124,23.512305 271.11295,22.681006 270.39249,21.838623 269.9713,20.497461 269.56119,19.156299 269.56119,17.349609 269.56119,15.609424 269.79395,14.268261 270.0378,12.916015 270.40357,11.785449 270.90235,10.222607 271.98858,9.2583003 273.07481,8.2829096 274.65982,8.1942378 275.44678,8.1499018 276.32242,8.1055659 277.20914,8.0612299 277.70792,8.016894 278.16236,7.983642 278.60572,7.7619623 279.04908,7.5291987 279.49244,6.9639154 L 280.12423,7.4183588 Q 279.88038,7.7508784 279.45919,8.2829096 279.04908,8.8149409 278.73873,9.1363765 278.4838,9.4134761 278.30645,9.5908198 278.12911,9.7681636 277.96285,9.8457515 277.7855,9.9455073 277.53057,9.9898433 277.27564,10.034179 276.86553,10.056347 276.38892,10.078515 275.70172,10.133935 275.02559,10.189355 274.52681,10.200439 273.76202,10.233691 273.20782,10.555127 272.65362,10.865478 272.2546,11.308837 271.85557,11.752197 271.61172,12.295312 271.36788,12.838427 271.23487,13.248535 271.02427,13.946826 270.88018,14.600781 270.74717,15.243652 270.69175,15.897607 Z"
       id="path34" />
    <path
       d="M 298.74533,16.673486 Q 299.43253,17.139013 299.88698,17.892724 300.34142,18.646435 300.34142,19.721582 300.34142,20.818896 299.86481,21.628027 299.3882,22.437158 298.6234,22.958105 297.88077,23.467969 296.93864,23.733984 296.00758,24 295.01002,24 H 287.56158 V 23.213037 Q 287.8276,23.190869 288.33746,23.124365 288.84733,23.046777 289.06901,22.947021 289.41261,22.791846 289.5567,22.536914 289.70079,22.270898 289.70079,21.860791 V 10.555127 Q 289.70079,10.178271 289.56779,9.8900874 289.44586,9.6019038 289.06901,9.4245601 288.73649,9.2583003 288.32638,9.1696284 287.91627,9.0809565 287.63917,9.0587886 V 8.2718256 H 294.89918 Q 295.74157,8.2718256 296.50636,8.4380854 297.28224,8.6043452 297.98053,9.0255366 298.63449,9.4134761 299.05568,10.078515 299.47687,10.743554 299.47687,11.696777 299.47687,12.528076 299.1776,13.182031 298.87833,13.824902 298.33522,14.290429 297.82535,14.733789 297.16032,15.04414 296.50636,15.343408 295.74157,15.509668 V 15.609424 Q 296.41769,15.687011 297.24899,15.953027 298.09137,16.207959 298.74533,16.673486 Z M 296.07408,14.301513 Q 296.48419,13.824902 296.63937,13.259619 296.80563,12.694336 296.80563,11.918457 296.80563,10.62163 296.09625,9.8900874 295.38688,9.1474604 293.85729,9.1474604 293.5026,9.1474604 292.95949,9.1696284 292.42745,9.1807124 292.06168,9.1917964 V 15.232568 H 293.46935 Q 294.37824,15.232568 295.02111,14.999804 295.67506,14.767041 296.07408,14.301513 Z M 297.60367,19.322558 Q 297.60367,17.925976 296.66154,17.028174 295.73048,16.130371 293.9903,16.130371 293.28092,16.130371 292.79323,16.152539 292.30553,16.163623 292.06168,16.174707 V 21.716699 Q 292.06168,22.41499 292.62697,22.769678 293.19225,23.124365 294.20089,23.124365 295.85241,23.124365 296.72804,22.160059 297.60367,21.195752 297.60367,19.322558 Z"
       id="path36" />
    <path
       d="M 310.06207,20.785644 Q 310.06207,19.810254 309.34161,19.244971 308.62116,18.679687 307.27999,18.679687 306.69254,18.679687 306.34894,18.701855 306.01642,18.724023 305.82799,18.724023 V 22.337402 Q 305.82799,22.769678 306.19376,23.013525 306.55953,23.246289 307.31324,23.246289 308.11129,23.246289 308.66549,23.035693 309.21969,22.825098 309.53004,22.459326 309.82931,22.104639 309.94015,21.683447 310.06207,21.262256 310.06207,20.785644 Z M 312.27887,20.951904 Q 312.27887,21.761035 311.9131,22.348486 311.54733,22.935937 310.90446,23.312793 310.317,23.656396 309.56329,23.83374 308.80958,24 307.95612,24 H 302.18136 V 23.268457 Q 302.43629,23.246289 302.70231,23.224121 302.97941,23.201953 303.17892,23.135449 303.48927,23.035693 303.63336,22.791846 303.78854,22.536914 303.78854,22.137891 V 15.04414 Q 303.78854,14.678369 303.63336,14.434521 303.47819,14.17959 303.16783,14.046582 302.87965,13.913574 302.60255,13.869238 302.33654,13.824902 302.10377,13.802734 V 13.071191 Q 303.09025,13.071191 304.54225,13.060107 306.00533,13.049023 307.59034,13.049023 308.43273,13.049023 309.15319,13.170947 309.88473,13.281787 310.45001,13.558886 311.03746,13.84707 311.3589,14.345849 311.68033,14.833545 311.68033,15.531836 311.68033,16.62915 310.99313,17.272021 310.317,17.903808 309.20861,18.136572 V 18.258496 Q 309.77389,18.336084 310.317,18.513428 310.8712,18.690771 311.30348,19.001123 311.74684,19.322558 312.01285,19.79917 312.27887,20.264697 312.27887,20.951904 Z M 309.48571,15.620508 Q 309.48571,15.066308 309.27511,14.722705 309.0756,14.368017 308.73199,14.168506 308.38839,13.968994 307.95612,13.90249 307.53492,13.824902 307.08048,13.824902 306.7923,13.824902 306.43761,13.84707 306.09401,13.858154 305.82799,13.869238 V 17.859472 H 306.90314 Q 307.66793,17.859472 308.18888,17.682129 308.70983,17.504785 308.97584,17.205517 309.25294,16.917334 309.36378,16.51831 309.48571,16.119287 309.48571,15.620508 Z"
       id="path38" />
  </g>
  <g
     style="font-family:'Odessa Script'"
     aria-label="Гг Дд Ии Йй Мм Тт Цц Бб Вв"
     id="g78">
    <path
       d="M 19.353613,56.56001 Q 18.653564,56.370166 17.977246,56.156592 16.078808,55.622657 14.987207,55.622657 11.724267,55.622657 9.6122557,57.663477 7.7850096,59.431397 7.7850096,61.495948 7.7850096,62.397705 8.2477538,62.931641 8.7104979,63.465576 9.6122557,63.465576 11.308984,63.465576 12.412451,61.448487 13.326074,59.728028 13.326074,57.82959 L 13.349804,57.414307 13.409131,57.461768 Q 13.860009,58.244873 13.860009,59.502588 13.860009,61.234912 12.946386,62.373975 11.819189,63.762207 9.6359862,63.762207 8.5681151,63.762207 8.0341796,63.121485 7.4765136,62.516358 7.4765136,61.495948 7.4765136,59.146631 9.5173338,57.177002 11.854785,54.910743 15.42622,54.910743 16.316113,54.910743 17.751806,55.064991 18.333203,55.112452 20.041796,55.326026 22.438574,55.51587 22.925048,55.5396 23.387792,55.598926 24.052245,55.598926 25.215038,55.598926 26.211718,55.254834 27.208398,54.910743 28.086425,54.305616 27.908447,54.697168 27.57622,55.112452 27.089745,55.717579 26.496484,56.156592 25.915087,56.595606 25.120117,56.832911 24.313281,57.105811 23.126757,57.105811 22.224999,57.105811 21.430029,57.010889 20.646923,56.904102 19.353613,56.56001 Z M 4.4627441,68.864258 Q 4.4627441,67.6896 5.6492675,66.96582 6.8239257,66.265772 8.5206542,66.265772 8.7104979,66.265772 8.8410155,66.336963 8.8647459,66.336963 8.8884764,66.384424 8.7816893,66.431885 8.7342284,66.431885 7.1561522,66.431885 6.0170898,67.060742 4.8542968,67.725195 4.8542968,68.864258 4.8542968,69.659229 5.5543457,70.22876 6.2543945,70.786426 7.5239745,70.786426 9.2918944,70.786426 10.680127,69.611768 12.281933,68.259131 13.919336,64.391065 14.548193,62.812989 15.248242,61.187451 15.936425,59.550049 16.612744,58.802539 17.289062,58.043164 17.870459,57.639747 18.558642,57.153272 19.21123,56.975293 H 19.258691 L 19.21123,57.046485 Q 18.285742,57.734668 17.573828,59.977198 16.873779,62.207862 16.221191,64.414795 15.15332,67.618408 13.527783,69.149023 11.415771,71.142383 7.6900878,71.142383 6.1357421,71.142383 5.317041,70.489795 4.4627441,69.837207 4.4627441,68.864258 Z"
       id="path42" />
    <path
       d="M 20.184179,65.530127 20.089257,65.458936 Q 20.112988,65.411475 20.112988,65.387744 20.160449,65.292822 20.255371,65.162305 20.718115,64.687696 21.47749,64.319873 22.201269,63.975781 22.936914,63.975781 24.052246,63.975781 24.609912,64.414795 25.143847,64.877539 25.143847,65.67251 25.143847,66.66919 24.467529,67.333643 23.933593,67.843848 22.913183,68.176074 21.335107,68.745606 20.919824,69.030371 20.48081,69.350732 20.48081,70.00332 20.48081,70.881348 21.453759,70.881348 22.592822,70.881348 23.909863,69.469385 24.242089,69.101563 25.238769,67.725195 25.28623,67.618408 25.487939,67.523486 L 25.55913,67.618408 Q 25.55913,67.748926 25.440478,67.93877 24.776025,69.006641 24.123437,69.706689 22.758935,71.142383 21.358837,71.142383 20.528271,71.142383 19.970605,70.7271 19.341748,70.25249 19.341748,69.421924 19.341748,68.354053 20.018066,67.618408 20.528271,67.060742 21.524951,66.621729 22.308056,66.313233 23.055566,65.992871 23.779345,65.67251 23.779345,65.316553 23.779345,64.877539 23.54204,64.687696 23.26914,64.485987 22.782666,64.485987 22.225,64.485987 21.596142,64.747022 20.967285,64.996192 20.45708,65.411475 20.409619,65.458936 20.290966,65.506397 20.255371,65.506397 20.184179,65.530127 Z"
       id="path44" />
    <path
       d="M 33.912255,71.237305 Q 32.749462,71.237305 32.073144,70.97627 31.218847,70.632178 31.218847,69.97959 31.218847,69.493115 31.729052,69.20835 32.239257,68.911719 32.998632,68.911719 33.769872,68.911719 34.624169,69.077832 35.44287,69.255811 36.71245,69.706689 37.898974,68.543897 38.777001,66.799707 39.429589,65.482666 40.260155,63.097754 41.280565,60.214502 42.253514,58.707618 43.226464,57.224463 44.82827,56.156592 43.179003,54.554786 39.963524,54.554786 37.198925,54.554786 35.347948,56.737989 33.698681,58.707618 33.698681,61.009473 33.698681,62.326514 34.351269,63.145215 34.980126,63.975781 36.225976,63.975781 37.946435,63.975781 39.073632,62.397705 40.034716,61.009473 40.034716,59.241553 40.034716,57.639747 39.192284,56.951563 L 39.097362,56.80918 39.168554,56.761719 39.263476,56.78545 Q 39.797411,57.129541 40.058446,57.782129 40.331347,58.458448 40.331347,59.336475 40.331347,61.187451 39.287206,62.63501 38.124413,64.272412 36.225976,64.272412 34.493651,64.272412 33.508837,63.346924 32.488427,62.445166 32.488427,60.724707 32.488427,58.316065 34.39873,56.393897 36.593798,54.210694 39.939794,54.210694 41.838231,54.210694 43.202733,54.697168 44.223143,55.064991 45.267284,55.836231 45.967333,55.397217 46.311425,55.231104 46.940282,54.910743 47.545409,54.79209 47.130126,55.005665 46.643651,55.373487 46.133446,55.76504 45.682567,56.204053 46.57246,57.248194 47.011473,58.624561 47.450487,59.989063 47.450487,61.6146 47.450487,65.506397 45.777489,68.104883 43.80786,71.142383 40.188964,71.142383 38.314257,71.142383 36.997216,70.537256 36.083593,70.881348 35.786962,70.97627 34.837743,71.237305 33.912255,71.237305 Z M 40.627977,70.703369 Q 43.582421,70.703369 45.409667,67.891309 47.058934,65.340283 47.058934,61.8875 47.058934,58.660157 45.362206,56.619336 44.602831,57.616016 44.045165,59.039844 43.855321,59.526319 42.716259,63.584229 41.933153,66.408154 40.936474,67.725195 40.034716,68.911719 37.827782,70.145703 38.848192,70.442334 39.168554,70.513525 39.987255,70.703369 40.627977,70.703369 Z M 32.939306,69.255811 Q 32.334179,69.255811 31.978222,69.445654 31.586669,69.659229 31.586669,70.00332 31.586669,70.418604 32.239257,70.655908 32.868114,70.928809 33.556298,70.928809 34.469921,70.928809 35.229296,70.608447 35.395409,70.537256 36.178515,70.145703 35.134374,69.659229 34.39873,69.445654 33.67495,69.255811 32.939306,69.255811 Z"
       id="path46" />
    <path
       d="M 52.07793,69.564307 Q 51.615185,70.216895 50.962598,70.655908 50.274414,71.118652 49.526904,71.118652 48.81499,71.118652 48.352246,70.513525 47.901367,69.908398 47.901367,68.98291 47.901367,67.108203 49.348926,65.553858 50.986328,63.809668 53.288183,63.809668 53.940771,63.809668 54.261133,64.094434 54.510303,64.319873 54.581494,64.711426 L 54.88999,64.070703 56.883349,63.857129 53.12207,71.2729 Q 54.628955,70.881348 55.815478,69.445654 56.230761,68.935449 57.132519,67.642139 L 57.274902,67.547217 Q 57.417285,67.547217 57.417285,67.748926 57.346093,67.915039 57.298633,67.9625 56.064648,69.766016 55.530713,70.299951 54.510303,71.320361 52.979687,71.628857 L 51.010059,75.449463 Q 50.274414,76.885156 49.06416,77.632666 47.842041,78.415771 46.513135,78.415771 45.658838,78.415771 45.243555,77.929297 44.804541,77.466553 44.804541,76.707178 44.804541,75.473193 45.931738,74.334131 47.486084,72.744189 50.903271,71.806836 Z M 53.383105,64.118164 Q 52.196582,64.118164 50.689697,66.870899 49.325195,69.350732 49.325195,70.347412 49.325195,70.762695 49.764209,70.762695 50.321875,70.762695 51.152441,70.050781 51.959277,69.374463 52.635596,68.354053 L 54.332324,65.138574 Q 54.332324,64.711426 54.106885,64.414795 53.89331,64.118164 53.383105,64.118164 Z M 50.760889,72.186523 Q 48.648877,72.779785 47.141992,74.156152 45.611377,75.568115 45.611377,77.027539 45.611377,77.537744 45.824951,77.798779 46.050391,78.09541 46.536865,78.09541 47.284375,78.09541 47.996289,77.241113 48.530225,76.588525 49.277734,75.08164 Z"
       id="path48" />
    <path
       d="M 76.484713,66.158985 81.87153,55.420948 84.16152,55.254834 77.718698,67.9625 Q 77.113571,69.125293 77.113571,69.932129 77.113571,70.786426 77.884811,70.786426 78.596725,70.786426 79.593405,69.706689 80.269723,68.98291 81.12402,67.725195 81.195211,67.618408 81.266403,67.570947 81.290133,67.570947 81.337594,67.547217 L 81.432516,67.665869 Q 81.432516,67.843848 81.337594,67.9625 80.435836,69.279541 79.830709,69.932129 78.667916,71.142383 77.671237,71.142383 76.508444,71.142383 75.998239,70.584717 75.582956,70.121973 75.582956,69.303272 75.582956,68.911719 75.630416,68.638818 75.677877,68.401514 75.772799,68.009961 74.918502,69.445654 73.957418,70.276221 72.960739,71.118652 72.058981,71.118652 70.575827,71.118652 69.840182,70.299951 69.211325,69.564307 69.211325,68.282861 69.211325,67.476026 69.555417,66.408154 69.899508,65.340283 70.71821,63.809668 71.548776,62.279053 73.174313,59.775489 73.981149,58.482178 73.981149,57.129541 73.981149,56.002344 73.364157,55.326026 72.687838,54.578516 71.394528,54.578516 68.677389,54.578516 66.6603,56.880372 64.844919,58.968653 64.844919,61.211182 64.844919,62.231592 65.378854,62.860449 65.91279,63.489307 66.95693,63.489307 68.558737,63.489307 69.579147,61.211182 70.409713,59.360205 70.409713,57.509229 L 70.374118,57.022754 Q 70.374118,56.927832 70.433444,56.832911 70.433444,56.80918 70.480905,56.761719 70.552096,56.80918 70.575827,56.832911 70.670749,56.927832 70.71821,57.153272 71.01484,58.149952 71.01484,59.241553 71.01484,61.187451 70.113083,62.373975 69.045212,63.785938 66.95693,63.785938 65.734811,63.785938 65.129684,63.085889 64.524557,62.373975 64.524557,61.187451 64.524557,58.85 66.399264,56.690528 68.487546,54.281885 71.370797,54.281885 73.494674,54.281885 74.610006,55.51587 75.654147,56.666797 75.654147,58.482178 75.654147,59.122901 75.559225,59.633106 75.381247,60.451807 74.894772,61.519678 74.408297,62.61128 73.637057,64.023242 72.106442,66.574268 71.691159,67.286182 70.967379,68.520166 70.967379,69.540576 70.967379,70.786426 72.058981,70.786426 73.411618,70.786426 75.238864,68.2354 75.891452,67.309912 76.484713,66.158985 Z"
       id="path50" />
    <path
       d="M 91.933247,67.404834 92.004438,67.499756 Q 91.956978,67.725195 91.909517,67.796387 90.936567,69.303272 90.426362,69.884668 89.334761,71.142383 88.361812,71.142383 87.412593,71.142383 86.985444,70.774561 86.570161,70.394873 86.570161,69.659229 86.570161,69.030371 86.902388,68.104883 87.104097,67.570947 87.436323,66.870899 87.27021,67.155664 86.973579,67.665869 86.570161,68.354053 86.415913,68.591357 85.668403,69.659229 85.205659,70.169434 84.303902,71.142383 83.627583,71.142383 82.002046,71.142383 82.002046,69.374463 82.002046,68.911719 82.168159,68.306592 82.334273,67.6896 82.607173,67.060742 L 83.912349,64.070703 86.226069,63.928321 84.20898,67.9625 Q 83.817427,68.686279 83.580122,69.279541 83.330952,69.860938 83.330952,70.276221 83.330952,70.786426 83.841157,70.786426 84.256441,70.786426 84.909029,70.098242 85.419234,69.564307 86.178609,68.448975 86.546431,67.891309 87.27021,66.597998 87.875337,65.553858 88.077046,65.114844 L 88.551655,64.070703 90.936567,63.928321 88.433003,68.840527 Q 87.970259,69.766016 87.970259,70.25249 87.970259,70.857617 88.433003,70.857617 89.2873,70.857617 90.628071,69.125293 90.984028,68.662549 91.648481,67.642139 91.695942,67.547217 91.814595,67.476026 91.838325,67.452295 91.933247,67.404834 Z"
       id="path52" />
    <path
       d="M 110.98882,66.158985 116.37563,55.420948 118.66562,55.254834 112.2228,67.9625 Q 111.61768,69.125293 111.61768,69.955859 111.61768,70.857617 112.36519,70.857617 113.24321,70.786426 114.50093,69.220215 115.09419,68.520166 115.62812,67.725195 115.69932,67.618408 115.77051,67.570947 115.79424,67.570947 115.8417,67.547217 L 115.93662,67.665869 Q 115.93662,67.772656 115.8417,67.9625 114.93994,69.279541 114.33481,69.932129 113.17202,71.142383 112.17534,71.142383 111.01255,71.142383 110.50234,70.513525 110.08706,70.00332 110.08706,69.196484 110.08706,68.71001 110.20571,68.2354 110.20571,68.152344 110.2769,68.009961 109.42261,69.445654 108.46152,70.276221 107.46484,71.118652 106.56309,71.118652 105.07993,71.118652 104.34429,70.299951 103.71543,69.564307 103.71543,68.282861 103.71543,67.476026 104.05952,66.408154 104.40361,65.340283 105.22231,63.809668 106.05288,62.279053 107.67842,59.775489 108.48525,58.482178 108.48525,57.129541 108.48525,56.002344 107.86826,55.326026 107.19194,54.578516 105.89863,54.578516 H 105.80371 Q 103.13403,54.578516 101.14067,56.880372 99.349023,58.968653 99.349023,61.211182 99.349023,62.231592 99.882959,62.860449 100.41689,63.489307 101.46104,63.489307 103.06284,63.489307 104.08325,61.211182 104.91382,59.360205 104.91382,57.509229 L 104.87822,57.129541 V 57.022754 Q 104.87822,56.927832 104.93755,56.832911 104.93755,56.80918 104.98501,56.761719 105.12739,56.761719 105.22231,57.153272 105.51895,58.149952 105.51895,59.241553 105.51895,61.187451 104.61719,62.373975 103.54932,63.785938 101.46104,63.785938 100.23892,63.785938 99.633789,63.085889 99.028662,62.373975 99.028662,61.187451 99.028662,58.85 100.90337,56.690528 102.99165,54.281885 105.8749,54.281885 107.99878,54.281885 109.11411,55.51587 110.15825,56.666797 110.15825,58.482178 110.15825,58.82627 110.15825,59.170362 110.08706,59.478858 110.06333,59.633106 109.74297,61.377295 107.70215,64.806348 106.95464,66.040332 106.21899,67.286182 105.47148,68.520166 105.47148,69.564307 105.47148,70.169434 105.72065,70.513525 105.98169,70.857617 106.53936,70.857617 107.65469,70.857617 109.16157,69.006641 110.25317,67.665869 110.98882,66.158985 Z M 110.88203,53.380128 Q 110.88203,53.095362 111.1312,52.869922 111.34477,52.680079 111.66514,52.680079 111.92617,52.680079 112.12788,52.869922 112.29399,53.095362 112.29399,53.380128 112.29399,53.795411 111.9499,53.985254 112.70928,54.673438 113.68223,54.673438 114.63144,54.673438 115.55693,54.068311 115.35522,53.866602 115.35522,53.581836 115.35522,53.214014 115.5688,52.97671 115.79424,52.72754 116.1146,52.72754 116.79092,52.72754 116.79092,53.403858 116.79092,53.629297 116.64853,53.866602 116.4231,54.258155 115.93662,54.51919 114.89248,55.159913 113.68223,55.159913 112.46011,55.159913 111.59394,54.471729 110.88203,53.961524 110.88203,53.380128 Z"
       id="path54" />
    <path
       d="M 119.80468,59.799219 Q 119.80468,59.087305 120.50473,59.087305 121.16918,59.087305 121.16918,59.82295 121.16918,60.167041 120.84882,60.522998 121.56073,61.163721 122.58114,61.163721 123.49477,61.163721 124.39652,60.59419 124.20668,60.333155 124.20668,60.012793 124.20668,59.633106 124.44398,59.383936 124.69315,59.146631 125.00165,59.146631 125.27455,59.146631 125.48813,59.312745 125.68983,59.502588 125.68983,59.84668 125.68983,60.107715 125.41693,60.404346 125.1559,60.700977 124.83554,60.890821 123.67274,61.567139 122.54555,61.567139 121.38275,61.567139 120.481,60.890821 119.80468,60.404346 119.80468,59.799219 Z M 126.43734,67.404834 126.50854,67.499756 Q 126.46107,67.725195 126.41361,67.796387 125.44066,69.303272 124.93046,69.884668 123.83886,71.142383 122.86591,71.142383 121.91669,71.142383 121.48954,70.774561 121.07426,70.394873 121.07426,69.659229 121.07426,69.030371 121.40648,68.104883 121.60819,67.570947 121.94042,66.870899 121.77431,67.155664 121.47768,67.665869 121.07426,68.354053 120.92001,68.591357 120.1725,69.659229 119.70976,70.169434 118.808,71.142383 118.13168,71.142383 116.50614,71.142383 116.50614,69.374463 116.50614,68.911719 116.67226,68.306592 116.83837,67.6896 117.11127,67.060742 L 118.41645,64.070703 120.73017,63.928321 118.71308,67.9625 Q 118.32152,68.686279 118.08422,69.279541 117.83505,69.860938 117.83505,70.276221 117.83505,70.786426 118.34525,70.786426 118.76054,70.786426 119.41313,70.098242 119.92333,69.564307 120.68271,68.448975 121.05053,67.891309 121.77431,66.597998 122.37943,65.553858 122.58114,65.114844 L 123.05575,64.070703 125.44066,63.928321 122.9371,68.840527 Q 122.47436,69.766016 122.47436,70.25249 122.47436,70.857617 122.9371,70.857617 123.7914,70.857617 125.13217,69.125293 125.48813,68.662549 126.15258,67.642139 126.20004,67.547217 126.31869,67.476026 126.34242,67.452295 126.43734,67.404834 Z"
       id="path56" />
    <path
       d="M 139.26367,67.238721 Q 141.60112,63.513037 143.95043,59.775489 145.70649,57.592286 146.86928,56.370166 147.74731,55.468409 148.47109,54.934473 L 145.65903,63.370655 Q 145.3624,64.224951 144.63862,66.313233 143.47583,69.611768 143.47583,70.371143 143.47583,70.7271 143.66567,70.7271 143.98603,70.7271 144.66235,69.516846 145.17255,68.591357 146.12177,66.526807 147.37949,63.762207 147.8185,62.860449 148.95756,60.451807 150.36953,58.5771 151.31874,57.319385 152.61206,56.049805 153.19345,55.492139 153.77485,54.934473 153.24091,56.132862 152.529,58.612696 152.01879,60.333155 151.27128,63.370655 150.73735,65.577588 150.53564,66.455615 150.17968,68.199805 150.17968,69.220215 150.17968,70.786426 151.08144,70.786426 151.80522,70.786426 152.82563,69.540576 153.09853,69.220215 154.09521,67.725195 154.1664,67.642139 154.23759,67.594678 154.26132,67.594678 154.28505,67.570947 154.37998,67.665869 154.37998,67.725195 L 154.30878,67.915039 Q 153.14599,69.682959 153.06293,69.789746 151.97133,71.142383 150.97465,71.142383 149.64575,71.142383 148.95756,70.169434 148.25751,69.220215 148.25751,67.594678 148.25751,65.708106 149.07622,63.370655 149.90678,61.033203 151.05771,58.992383 151.7103,57.82959 152.94428,56.049805 152.12558,56.737989 151.17636,57.971973 149.62202,60.012793 148.11513,63.026563 146.79809,65.850488 145.49291,68.662549 144.2708,71.094922 143.54702,71.094922 141.86215,71.094922 141.86215,68.935449 141.86215,67.867578 142.22998,66.503076 142.5978,65.138574 143.34531,63.252002 144.34199,60.795899 145.65903,58.731348 146.63198,57.200733 147.72358,55.931153 147.18964,56.417627 146.47773,57.200733 145.43359,58.339795 144.15214,59.965332 143.08427,61.329834 141.71977,63.667285 139.75014,67.060742 139.53657,67.404834 138.33818,69.279541 137.29404,70.169434 136.01259,71.296631 134.52944,71.296631 133.11748,71.296631 132.28691,70.762695 131.34956,70.145703 131.34956,68.95918 131.34956,67.843848 132.55981,67.108203 133.74633,66.408154 135.1583,66.408154 135.4312,66.408154 135.6685,66.479346 L 135.57358,66.526807 Q 134.11416,66.526807 132.92763,67.179395 131.72924,67.867578 131.72924,68.95918 131.72924,69.955859 132.65473,70.489795 133.43784,70.952539 134.55317,70.952539 135.91767,70.952539 137.12792,69.908398 138.1246,69.030371 139.26367,67.238721 Z"
       id="path58" />
    <path
       d="M 159.41084,66.597998 Q 160.36006,65.067383 161.26182,64.319873 161.79575,63.857129 162.44834,63.607959 162.44834,64.509717 162.35342,65.197901 162.2585,65.874219 161.79575,67.179395 161.47539,68.081152 161.16689,68.98291 160.84653,69.908398 160.84653,70.323682 160.84653,70.703369 161.14316,70.703369 161.38047,70.703369 161.86694,69.611768 163.02974,67.037012 163.11279,66.870899 163.90776,65.162305 164.85698,64.319873 165.48584,63.762207 166.04351,63.607959 166.04351,64.319873 165.92485,65.15044 165.8062,65.969141 165.41465,67.179395 165.17734,67.9625 164.99936,68.662549 164.83325,69.374463 164.83325,69.837207 164.83325,70.786426 165.55703,70.786426 166.01978,70.786426 167.08765,69.516846 167.87075,68.591357 168.42842,67.748926 L 168.49961,67.665869 Q 168.70132,67.843848 168.70132,67.891309 L 168.67759,67.9625 Q 167.33682,69.789746 167.19443,69.955859 166.19775,71.118652 165.50957,71.118652 164.56035,71.118652 164.00269,70.537256 163.44502,69.955859 163.44502,68.864258 163.44502,68.081152 163.69419,67.238721 163.93149,66.384424 164.27559,65.648779 164.53662,65.067383 164.78579,64.735156 164.46543,65.019922 164.18066,65.458936 163.76538,66.064063 163.37383,66.96582 161.62964,71.047461 161.07197,71.047461 160.45498,71.047461 160.07529,70.537256 159.66001,70.027051 159.66001,69.125293 159.66001,68.615088 159.7312,68.18794 159.80239,67.748926 160.09902,67.037012 160.36006,66.336963 160.5855,65.897949 160.72788,65.577588 161.30928,64.735156 160.72788,65.364014 160.45498,65.708106 160.09902,66.158985 159.68374,66.799707 158.71079,68.259131 157.76157,69.706689 156.62251,71.118652 155.21055,71.118652 153.79858,71.118652 153.79858,70.098242 153.79858,69.635498 154.11895,69.374463 154.40371,69.125293 154.79526,69.125293 155.18682,69.125293 155.44785,69.350732 155.72075,69.588037 155.72075,70.074512 155.72075,70.394873 155.62583,70.584717 155.50718,70.786426 155.21055,70.905078 155.23428,70.905078 155.25801,70.905078 156.64624,70.905078 157.95142,68.95918 158.08193,68.769336 159.41084,66.597998 Z"
       id="path60" />
    <path
       d="M 189.94008,56.227784 Q 188.45692,55.954883 186.79579,55.670118 185.14652,55.373487 184.44647,55.373487 181.29032,55.373487 179.14272,57.509229 177.3036,59.360205 177.3036,61.401026 177.3036,62.302783 177.73075,62.836719 178.16977,63.370655 179.04779,63.370655 180.80385,63.370655 181.89545,61.234912 182.82094,59.431397 182.82094,57.616016 L 182.8684,57.414307 182.91586,57.461768 Q 183.12943,57.853321 183.24809,58.339795 183.3786,58.85 183.3786,59.478858 183.3786,61.211182 182.47685,62.350244 181.36151,63.762207 179.14272,63.762207 178.05111,63.762207 177.51718,63.121485 176.95951,62.516358 176.95951,61.495948 176.95951,59.241553 179.02406,57.224463 181.40897,54.910743 184.93295,54.910743 L 191.1266,55.254834 Q 192.70468,55.254834 194.88788,55.349756 197.05922,55.468409 199.46786,55.598926 200.74931,55.598926 201.37816,55.373487 201.98329,55.159913 202.83759,54.305616 202.64774,54.981934 202.27992,55.51587 201.81718,56.227784 201.11713,56.643067 200.55946,56.951563 199.82382,57.022754 199.07631,57.129541 197.83046,57.129541 195.81337,57.129541 193.97426,56.880372 192.12328,56.666797 189.94008,56.227784 Z M 194.1641,71.142383 Q 192.93012,71.142383 192.26566,70.489795 191.3995,69.635498 191.3995,67.547217 191.3995,65.340283 192.72841,62.812989 193.9268,60.546729 195.74218,58.802539 196.11,58.434717 196.82191,57.995704 197.54569,57.55669 198.15082,57.319385 L 198.22201,57.366846 198.10336,57.485498 Q 196.43036,58.731348 194.92348,61.567139 193.3098,64.604639 193.3098,67.060742 193.3098,68.71001 193.97426,69.469385 194.55565,70.145703 195.67099,70.145703 196.18119,70.145703 196.59647,70.074512 197.01176,70.00332 197.32025,69.932129 L 197.10668,70.169434 Q 195.67099,71.142383 194.1641,71.142383 Z M 185.46688,71 Q 186.16693,68.840527 188.01791,64.628369 189.5248,61.258643 190.82997,58.55337 191.07914,58.102491 191.82665,57.687207 192.17074,57.509229 193.19115,57.105811 V 57.224463 Q 192.36059,58.316065 191.15033,61.080664 190.12992,63.394385 189.01459,66.479346 187.99418,69.303272 187.50771,71 Z M 182.98705,65.162305 Q 183.98373,62.694336 184.44647,61.567139 185.26518,59.656836 186.00082,58.802539 186.62968,58.066895 187.22294,57.675342 187.82807,57.271924 188.57558,56.975293 L 188.62304,56.999024 Q 187.67382,57.710938 186.87885,60.083985 186.04828,62.492627 185.26518,64.830078 184.58886,66.704785 183.81762,67.915039 182.84467,69.398193 181.59882,70.098242 180.67333,70.632178 179.51054,70.881348 178.32401,71.142383 177.07816,71.142383 175.33398,71.142383 174.50341,70.418604 173.85082,69.837207 173.85082,68.887988 173.85082,67.748926 175.01361,66.989551 176.18827,66.265772 177.6121,66.265772 H 177.90873 Q 178.00365,66.289502 178.09857,66.360694 178.12231,66.384424 178.14604,66.408154 176.63915,66.431885 175.52382,67.037012 174.24237,67.748926 174.24237,68.864258 174.24237,69.813477 175.10854,70.347412 175.82045,70.786426 176.91205,70.786426 179.07152,70.786426 180.6496,69.077832 181.84799,67.820117 182.98705,65.162305 Z"
       id="path62" />
    <path
       d="M 205.69712,63.809668 Q 206.51582,63.809668 206.95483,64.296143 207.32265,64.711426 207.32265,65.245362 L 207.27519,65.648779 Q 207.85659,64.90127 208.39052,64.438526 209.1143,63.833399 209.7313,63.833399 210.31269,63.833399 210.64492,64.248682 210.98901,64.6521 210.98901,65.292822 210.98901,65.826758 210.77544,66.431885 210.52627,67.060742 210.03979,67.737061 209.55332,68.401514 209.24482,69.054102 208.92446,69.742285 208.92446,70.169434 208.92446,70.762695 209.55332,70.762695 210.26523,70.762695 211.38056,69.374463 211.86704,68.769336 212.56709,67.772656 212.61455,67.665869 212.81626,67.570947 212.91118,67.665869 212.91118,67.725195 L 212.79253,68.009961 Q 212.08061,69.077832 211.61787,69.635498 210.40761,71.142383 209.29228,71.142383 208.43798,71.142383 207.97524,70.833887 207.48877,70.513525 207.48877,69.742285 207.48877,69.101563 207.90405,68.128613 207.90405,68.104883 209.33974,65.648779 209.84995,64.782617 209.84995,64.438526 209.84995,64.17749 209.57705,64.17749 209.04311,64.17749 208.11762,65.138574 207.29892,66.016602 206.58701,67.108203 L 204.60551,71 H 202.75454 L 205.67339,65.292822 Q 205.79204,65.091113 205.86323,64.90127 205.91069,64.711426 205.91069,64.485987 205.91069,64.141895 205.5666,64.141895 205.16318,64.141895 204.54619,64.758887 204.26142,65.043653 202.87319,66.847168 L 200.73745,71 H 198.83901 L 201.92397,65.197901 Q 202.01889,64.996192 202.12568,64.782617 202.19687,64.580908 202.19687,64.438526 202.19687,64.248682 201.92397,64.248682 201.17646,64.248682 199.85942,65.897949 199.08818,66.94209 198.32881,67.9625 L 198.21015,68.033691 198.06777,67.915039 198.13896,67.796387 Q 199.20683,66.384424 200.2747,64.948731 201.36631,63.809668 202.14941,63.809668 202.82573,63.809668 203.16982,64.224951 203.47832,64.628369 203.47832,65.197901 L 203.43086,65.577588 Q 204.01225,64.782617 204.40381,64.438526 205.08012,63.809668 205.69712,63.809668 Z"
       id="path64" />
    <path
       d="M 230.74462,68.009961 Q 229.89033,69.445654 228.91738,70.276221 227.9207,71.118652 227.0308,71.118652 225.54765,71.118652 224.81201,70.299951 224.18315,69.564307 224.18315,68.282861 224.18315,67.476026 224.50351,66.479346 224.95439,65.114844 226.22397,62.90791 226.80536,61.8875 228.14614,59.775489 228.96484,58.458448 228.96484,57.129541 228.96484,55.978614 228.35971,55.326026 227.65966,54.578516 226.36635,54.578516 223.64921,54.578516 221.63212,56.880372 219.80488,58.968653 219.80488,61.211182 219.80488,62.231592 220.33881,62.860449 220.87275,63.489307 221.91689,63.489307 223.53056,63.489307 224.55097,61.211182 225.36967,59.360205 225.36967,57.509229 L 225.34594,57.022754 Q 225.34594,56.856641 225.41713,56.78545 225.44086,56.78545 225.47646,56.761719 225.52392,56.80918 225.54765,56.832911 225.64257,56.975293 225.69003,57.153272 225.98666,58.149952 225.98666,59.241553 225.98666,61.187451 225.08491,62.373975 224.01703,63.785938 221.91689,63.785938 220.73036,63.785938 220.12524,63.050293 219.49638,62.350244 219.49638,61.187451 219.49638,58.85 221.35922,56.690528 223.45937,54.281885 226.34262,54.281885 228.47836,54.281885 229.60556,55.51587 230.62597,56.643067 230.62597,58.482178 230.62597,59.122901 230.51918,59.633106 230.35307,60.451807 229.84286,61.590869 229.26147,62.931641 228.14614,64.830078 227.00707,66.728516 226.66298,67.286182 225.92734,68.591357 225.92734,69.540576 225.92734,70.786426 227.0308,70.786426 228.38344,70.786426 230.21069,68.2354 230.86327,67.309912 231.44467,66.158985 L 236.84335,55.420948 239.12148,55.254834 232.69052,67.9625 Q 232.10912,69.101563 232.10912,69.932129 232.10912,70.762695 232.88036,70.762695 233.63974,70.762695 234.22114,70.074512 234.33979,69.932129 234.89745,69.125293 235.01611,68.95918 235.12289,68.887988 235.14662,68.887988 235.19409,68.864258 L 235.28901,68.98291 Q 235.28901,69.374463 235.12289,70.074512 234.94492,70.810156 234.89745,71.071191 235.24155,70.905078 235.56191,70.738965 235.89413,70.560986 236.23823,70.299951 L 236.33315,70.394873 236.28569,70.537256 Q 236.06025,70.786426 235.55004,71.094922 235.01611,71.439014 234.84999,71.533936 234.73134,72.091602 234.63642,72.649268 234.45844,73.384912 234.24487,73.895117 233.85331,74.915527 233.12953,74.915527 232.3227,74.915527 232.3227,74.0375 232.3227,73.183203 233.1058,72.364502 233.63974,71.806836 234.52963,71.2729 234.61269,70.952539 234.75507,70.442334 234.87372,69.955859 234.89745,69.742285 234.38725,70.489795 233.92451,70.822021 233.46176,71.142383 232.66679,71.142383 231.57519,71.142383 231.06498,70.632178 230.55478,70.121973 230.55478,69.303272 230.55478,69.030371 230.62597,68.686279 230.67343,68.354053 230.74462,68.009961 Z M 234.43471,71.700049 Q 233.4143,72.506885 233.34311,72.578076 232.66679,73.254394 232.66679,74.013769 232.66679,74.571435 233.15326,74.571435 233.53295,74.571435 233.90077,73.7646 234.06689,73.313721 234.22114,72.744189 234.36352,72.210254 234.43471,71.700049 Z"
       id="path66" />
    <path
       d="M 244.48455,71.118652 Q 243.73705,71.118652 243.22684,70.738965 242.71663,70.347412 242.71663,69.659229 242.71663,69.030371 242.90648,68.377783 243.10819,67.748926 243.48788,66.870899 L 242.46747,68.591357 Q 241.62503,69.884668 240.8182,70.560986 240.11815,71.142383 239.58421,71.142383 238.84857,71.142383 238.43329,70.632178 237.99427,70.145703 237.99427,69.327002 237.99427,69.077832 238.07733,68.662549 238.12479,68.282861 238.33836,67.820117 L 239.63167,64.972461 Q 238.5638,66.289502 237.36541,67.9625 237.31795,68.057422 237.27049,68.081152 237.24676,68.081152 237.22303,68.081152 L 237.08065,67.93877 237.17557,67.748926 Q 237.85189,66.775977 238.58753,65.755567 239.07401,65.067383 239.82152,64.070703 L 242.27762,63.928321 239.84525,68.71001 Q 239.7266,69.006641 239.58421,69.469385 239.42997,69.955859 239.42997,70.25249 239.42997,70.786426 239.82152,70.786426 240.28426,70.786426 240.93685,70.098242 241.51825,69.516846 242.23016,68.448975 242.51493,68.009961 243.02513,67.108203 243.71331,65.92168 244.06927,65.114844 L 244.53202,64.070703 246.96439,63.928321 244.48455,68.840527 Q 244.31844,69.172754 244.17606,69.588037 243.99808,70.00332 243.99808,70.299951 243.99808,70.857617 244.57948,70.857617 245.65921,70.857617 246.45418,69.635498 246.57284,69.469385 246.67962,69.398193 246.70335,69.398193 246.72708,69.374463 L 246.84574,69.493115 Q 246.84574,69.766016 246.72708,70.347412 246.57284,70.928809 246.52538,71.142383 246.79828,71 247.04745,70.881348 247.30848,70.762695 247.56952,70.537256 L 247.6763,70.608447 247.61698,70.703369 Q 247.45086,70.928809 247.10677,71.118652 246.75081,71.344092 246.45418,71.533936 246.33553,72.257715 246.3118,72.411963 246.21688,72.898437 245.99144,73.432373 245.68294,74.227344 245.08968,74.227344 244.46082,74.227344 244.46082,73.527295 244.46082,72.850977 245.08968,72.186523 245.50496,71.74751 246.21688,71.320361 L 246.54911,70.00332 Q 246.06263,70.632178 245.55243,70.881348 245.04222,71.118652 244.48455,71.118652 Z M 246.16942,71.652588 Q 245.4575,72.186523 245.29139,72.364502 244.75746,72.922168 244.75746,73.503564 244.75746,73.966309 245.12528,73.966309 245.41004,73.966309 245.70667,73.337451 245.87279,72.898437 245.96771,72.530615 246.06263,72.162793 246.16942,71.652588 Z"
       id="path68" />
    <path
       d="M 267.34886,56.298975 Q 265.60467,55.78877 265.14193,55.670118 263.95541,55.373487 263.02992,55.373487 259.8619,55.373487 257.74989,57.532959 255.91078,59.431397 255.91078,61.495948 255.91078,62.397705 256.33793,62.931641 256.77694,63.465576 257.6787,63.465576 259.41102,63.465576 260.52635,61.282373 261.45184,59.455127 261.45184,57.616016 L 261.47557,57.414307 261.52303,57.461768 Q 261.98578,58.244873 261.98578,59.502588 261.98578,61.234912 261.06029,62.373975 259.94496,63.762207 257.74989,63.762207 256.68202,63.762207 256.14808,63.121485 255.59042,62.516358 255.59042,61.495948 255.59042,59.194092 257.58378,57.224463 259.92123,54.910743 263.54012,54.910743 264.0266,54.910743 265.16566,55.005665 266.30472,55.136182 267.81161,55.302295 268.80829,55.397217 269.93549,55.504004 271.07455,55.598926 271.7746,55.598926 272.88993,55.598926 273.62557,55.326026 274.32562,55.064991 274.95448,54.305616 274.56293,55.468409 273.81542,56.180323 272.84247,57.105811 271.38304,57.105811 270.56434,57.105811 269.61512,56.880372 268.64217,56.690528 267.34886,56.298975 Z M 264.99955,63.323194 Q 264.58426,65.091113 264.14525,66.111524 263.33842,68.009961 262.0807,69.172754 259.76698,71.142383 256.24301,71.142383 254.59374,71.142383 253.79877,70.560986 253.01566,69.97959 253.01566,69.054102 253.01566,67.725195 254.38016,66.94209 255.56669,66.265772 257.07357,66.265772 257.19222,66.265772 257.31088,66.360694 257.23968,66.431885 257.16849,66.431885 255.75653,66.431885 254.68866,67.037012 253.40721,67.772656 253.40721,69.006641 253.40721,69.742285 254.08353,70.25249 254.75985,70.786426 256.07689,70.786426 258.28383,70.786426 259.83817,68.911719 261.01283,67.523486 262.05697,64.735156 262.68583,63.050293 263.31468,61.377295 264.05033,59.57378 264.70292,58.82627 265.3555,58.102491 266.01996,57.639747 266.55389,57.271924 267.23021,56.999024 L 267.34886,56.975293 267.32513,57.046485 Q 266.4827,57.663477 265.84198,59.799219 265.28431,62.160401 265.1182,62.812989 265.62841,62.587549 266.25726,62.421436 266.86239,62.279053 267.55057,62.279053 268.78456,62.279053 269.66258,62.979102 270.75419,63.857129 270.75419,65.458936 270.75419,67.452295 269.46088,69.220215 267.95399,71.296631 265.72333,71.296631 264.65546,71.296631 264.19271,70.857617 263.72997,70.418604 263.72997,69.635498 263.72997,68.306592 264.5368,67.155664 265.30804,66.016602 266.42338,65.826758 265.48602,66.111524 264.79784,67.262451 264.09779,68.401514 264.09779,69.611768 264.09779,70.169434 264.35883,70.513525 264.608,70.881348 265.18939,70.881348 266.83866,70.881348 268.03705,68.081152 268.9744,65.850488 268.9744,64.272412 268.9744,62.718067 267.34886,62.718067 266.69628,62.718067 266.11488,62.860449 265.50975,63.026563 264.99955,63.323194 Z"
       id="path70" />
    <path
       d="M 272.92552,71.118652 Q 272.07122,71.118652 271.58475,70.513525 271.07454,69.932129 271.07454,68.95918 271.07454,67.037012 272.58143,65.482666 274.1951,63.833399 276.49695,63.833399 277.10208,63.833399 277.42244,64.13003 277.7428,64.414795 277.7428,64.806348 278.25301,63.857129 279.55818,61.353565 281.0888,58.410987 282.13294,56.322706 282.52449,55.575196 283.12962,55.278565 283.73475,54.981934 284.58904,54.981934 285.07552,54.981934 285.83489,55.088721 287.50789,55.302295 287.79266,55.302295 288.48084,55.302295 288.82493,55.064991 L 288.89612,55.029395 288.82493,55.231104 Q 288.36219,55.646387 287.89944,55.836231 287.4367,56.049805 287.04515,56.049805 286.60613,56.049805 285.90608,55.78877 285.19417,55.51587 284.95687,55.51587 284.66024,55.51587 284.44666,55.693848 284.19749,55.883692 283.96019,56.370166 283.61609,57.105811 282.69061,58.85 281.69393,60.772168 280.69725,62.670606 279.58192,64.877539 278.68016,66.799707 277.71907,68.935449 276.3783,69.97959 274.94261,71.118652 272.92552,71.118652 Z M 277.51736,64.996192 Q 277.51736,64.687696 277.32752,64.391065 277.12581,64.118164 276.74612,64.118164 276.1054,64.118164 275.54774,64.580908 274.72903,65.269092 273.89847,66.91836 272.46277,69.837207 272.46277,70.442334 272.46277,70.881348 272.87806,70.881348 273.94593,70.881348 275.03753,69.516846 275.45281,69.006641 275.98675,68.104883 276.28338,67.618408 276.74612,66.740381 277.20887,65.850488 277.4699,65.245362 Z"
       id="path72" />
    <path
       d="M 285.85864,68.95918 Q 285.85864,67.820117 286.98583,67.096338 288.1249,66.360694 289.52499,66.360694 L 289.86909,66.384424 Q 290.01147,66.408154 290.07079,66.431885 290.09452,66.455615 290.11826,66.479346 288.65883,66.503076 287.46044,67.155664 286.25019,67.843848 286.25019,68.935449 286.25019,69.837207 287.02143,70.371143 287.80453,70.905078 288.99106,70.905078 290.37929,70.905078 291.60141,69.789746 292.62182,68.840527 293.80834,66.704785 294.75756,64.996192 295.96782,62.184131 296.94077,59.894141 297.96118,58.458448 299.30195,56.53628 300.99868,55.622657 300.41728,55.326026 299.6579,55.183643 298.91039,55.029395 297.84252,55.029395 293.64223,55.029395 291.0912,57.366846 288.91987,59.336475 288.91987,61.697657 288.91987,62.765528 289.4538,63.370655 289.98774,63.975781 290.86577,63.975781 293.04897,63.975781 294.1999,61.721387 295.06606,59.989063 295.06606,57.853321 L 295.11352,57.616016 Q 295.22031,57.758399 295.22031,57.80586 295.31523,58.197413 295.38642,58.755079 295.45761,59.336475 295.45761,59.82295 295.45761,61.745117 294.53212,62.88418 293.39306,64.319873 290.93696,64.319873 289.79789,64.319873 289.16904,63.607959 288.50458,62.931641 288.50458,61.721387 288.50458,59.241553 290.79457,57.177002 293.46425,54.744629 297.7476,54.744629 299.10024,54.744629 300.02573,54.863282 300.92748,54.981934 301.73432,55.278565 302.22079,55.112452 302.6954,55.112452 L 303.28867,55.159913 H 303.08696 Q 302.77846,55.159913 302.52929,55.183643 302.29199,55.231104 302.04282,55.373487 303.26493,55.836231 303.96498,56.80918 304.6413,57.80586 304.6413,59.087305 304.6413,60.261963 304.01244,61.163721 303.3124,62.160401 301.92416,62.718067 303.45478,63.346924 303.45478,65.364014 303.45478,67.404834 302.16147,69.220215 300.71391,71.296631 298.54257,71.296631 297.42724,71.296631 296.94077,70.833887 296.43056,70.394873 296.43056,69.611768 296.43056,68.543897 297.01196,67.476026 297.79506,66.040332 299.12397,65.826758 298.329,66.064063 297.56962,67.155664 296.82211,68.282861 296.82211,69.398193 296.82211,70.786426 297.93744,70.786426 299.56298,70.786426 300.71391,68.033691 301.62753,65.826758 301.62753,64.272412 301.62753,63.418115 301.24784,63.026563 300.88002,63.180811 300.61899,63.252002 300.36982,63.323194 300.02573,63.323194 299.05278,63.323194 299.05278,62.812989 299.05278,62.279053 300.16811,62.279053 300.46474,62.279053 300.76137,62.326514 301.02241,62.397705 301.41396,62.516358 302.06655,62.077344 302.43437,61.211182 302.80219,60.333155 302.80219,59.063575 302.80219,57.80586 302.43437,56.999024 302.06655,56.227784 301.46142,55.883692 300.32236,57.046485 299.51552,58.5771 298.61376,60.309424 297.79506,63.180811 296.3831,68.033691 293.5829,69.955859 291.72006,71.237305 289.01479,71.237305 287.59096,71.237305 286.73666,70.655908 285.85864,70.074512 285.85864,68.95918 Z M 300.14438,62.563819 Q 299.37314,62.563819 299.37314,62.88418 299.37314,63.097754 299.95453,63.097754 300.32236,63.097754 300.5122,63.026563 300.67831,62.955371 300.97494,62.812989 300.7851,62.694336 300.65458,62.63501 300.46474,62.563819 300.14438,62.563819 Z"
       id="path74" />
    <path
       d="M 309.37552,62.812989 306.80077,67.9625 Q 306.19564,69.149023 306.19564,69.955859 306.19564,70.881348 306.96688,70.881348 308.35511,70.881348 309.93319,68.686279 309.42299,68.401514 309.13822,67.748926 308.81786,67.084473 308.81786,66.384424 308.81786,65.435205 309.23314,64.794483 309.64843,64.141895 310.4434,64.141895 311.14344,64.141895 311.48754,64.462256 311.8079,64.806348 311.8079,65.364014 311.8079,66.016602 311.41634,66.870899 311.00106,67.725195 310.32474,68.567627 L 310.56205,68.591357 Q 310.9536,68.591357 311.32142,68.389649 311.68925,68.176074 311.99774,67.725195 312.02147,67.665869 312.14012,67.594678 312.24691,67.665869 312.24691,67.725195 L 312.17572,67.93877 Q 311.83163,68.448975 311.41634,68.638818 311.00106,68.864258 310.56205,68.864258 L 310.15863,68.816797 Q 309.5891,69.706689 308.74667,70.394873 307.72626,71.213574 306.8245,71.213574 305.85155,71.213574 305.31761,70.632178 304.75995,70.074512 304.75995,69.149023 304.75995,68.71001 304.83114,68.425244 304.8786,68.128613 305.06844,67.748926 L 306.68212,64.557178 Q 306.21937,65.091113 305.38881,66.087793 304.55824,67.084473 303.95311,67.891309 303.92938,67.93877 303.81073,67.986231 L 303.69208,67.867578 303.73954,67.725195 Q 304.41586,66.728516 305.66171,65.269092 306.70585,64.023242 307.01434,63.785938 308.16527,61.495948 308.52123,60.795899 309.83827,58.244873 310.3722,57.616016 310.81122,57.129541 311.32142,56.856641 311.8079,56.619336 312.29437,56.619336 312.97069,56.619336 313.4097,57.03462 313.84872,57.438038 313.84872,58.126221 313.84872,59.265284 312.17572,60.700977 311.535,61.258643 310.69257,61.8875 310.53832,61.982422 309.37552,62.812989 Z M 312.06893,60.380616 Q 313.4809,59.122901 313.4809,58.197413 313.4809,57.80586 313.27919,57.544825 313.08934,57.271924 312.78085,57.271924 312.38929,57.271924 312.02147,57.687207 311.62992,58.126221 310.74003,59.917871 310.15863,61.104395 309.56537,62.279053 310.27728,61.768848 310.96547,61.258643 311.66551,60.748438 312.06893,60.380616 Z M 311.17904,66.064063 Q 311.17904,65.755567 311.02479,65.553858 310.85868,65.387744 310.4434,65.387744 H 310.34847 Q 309.79081,65.387744 309.50604,65.767432 309.23314,66.135254 309.23314,66.704785 309.23314,67.286182 309.45858,67.772656 309.69589,68.259131 310.07557,68.472705 310.41967,68.009961 310.7163,67.452295 311.17904,66.574268 311.17904,66.064063 Z"
       id="path76" />
  </g>
</svg>
