<?xml version="1.0" encoding="UTF-8" standalone="no"?>
<svg
   xmlns:dc="http://purl.org/dc/elements/1.1/"
   xmlns:cc="http://creativecommons.org/ns#"
   xmlns:rdf="http://www.w3.org/1999/02/22-rdf-syntax-ns#"
   xmlns:svg="http://www.w3.org/2000/svg"
   xmlns="http://www.w3.org/2000/svg"
   xmlns:sodipodi="http://sodipodi.sourceforge.net/DTD/sodipodi-0.dtd"
   xmlns:inkscape="http://www.inkscape.org/namespaces/inkscape"
   inkscape:version="1.0 (1.0+r73)"
   sodipodi:docname="Aksara_Jawa.svg"
   id="svg14"
   xml:space="preserve"
   viewBox="0 0 147.89301 43.623001"
   height="43.623001"
   width="147.89301"
   version="1.1"><metadata
   id="metadata20"><rdf:RDF><cc:Work
       rdf:about=""><dc:format>image/svg+xml</dc:format><dc:type
         rdf:resource="http://purl.org/dc/dcmitype/StillImage" /><dc:title></dc:title></cc:Work></rdf:RDF></metadata><defs
   id="defs18" /><sodipodi:namedview
   fit-margin-bottom="2"
   fit-margin-right="2"
   fit-margin-left="2"
   fit-margin-top="2"
   inkscape:current-layer="svg14"
   inkscape:window-maximized="0"
   inkscape:window-y="0"
   inkscape:window-x="0"
   inkscape:cy="58.246239"
   inkscape:cx="146.10908"
   inkscape:zoom="2.2851562"
   showgrid="false"
   id="namedview16"
   inkscape:window-height="744"
   inkscape:window-width="1366"
   inkscape:pageshadow="2"
   inkscape:pageopacity="0"
   guidetolerance="10"
   gridtolerance="10"
   objecttolerance="10"
   borderopacity="1"
   bordercolor="#666666"
   pagecolor="#ffffff" />




<path
   id="path10"
   d="M 8.991,41.623 C 7.667,40.851 6.564,40.079 5.682,39.307 4.799,38.535 4.083,37.673 3.531,36.722 2.979,35.771 2.586,34.695 2.352,33.496 2.117,32.297 2,30.897 2,29.298 V 13.581 C 2,11.706 2.241,10.045 2.724,8.597 3.206,7.149 3.841,5.936 4.627,4.957 5.413,3.979 6.302,3.241 7.295,2.744 8.288,2.248 9.281,2 10.273,2 h 4.136 c 0.827,0 1.592,0.131 2.295,0.393 0.703,0.262 1.316,0.69 1.841,1.282 0.523,0.593 0.931,1.365 1.22,2.316 0.289,0.951 0.434,2.103 0.434,3.454 v 22.334 c 0,2.151 0.434,3.654 1.303,4.508 0.869,0.855 2.089,1.282 3.66,1.282 h 6.866 C 30.622,36.576 29.539,35.336 28.781,33.847 28.022,32.358 27.644,30.566 27.644,28.47 v -9.099 c 0,-2.261 0.427,-4.439 1.282,-6.535 0.854,-2.095 2.13,-3.95 3.826,-5.563 C 34.448,5.66 36.557,4.378 39.08,3.427 41.603,2.476 44.546,2 47.911,2 c 3.116,0 5.845,0.269 8.189,0.807 2.343,0.538 4.384,1.261 6.121,2.171 1.737,0.91 3.219,1.965 4.446,3.164 1.227,1.199 2.281,2.461 3.164,3.784 -4.55,0 -8.796,0.297 -12.739,0.889 -3.943,0.593 -7.521,1.386 -10.733,2.378 -3.212,0.993 -6.039,2.137 -8.479,3.433 -2.44,1.296 -4.46,2.661 -6.059,4.095 3.557,0.056 6.866,0.4 9.926,1.034 3.061,0.635 5.859,1.462 8.396,2.482 2.537,1.02 4.804,2.171 6.804,3.454 1.999,1.282 3.722,2.585 5.17,3.909 1.448,1.324 2.606,2.62 3.474,3.888 0.869,1.269 1.454,2.399 1.758,3.392 h -7.445 c -0.331,-1.13 -1,-2.288 -2.006,-3.474 -1.007,-1.185 -2.261,-2.33 -3.764,-3.433 -1.503,-1.103 -3.192,-2.136 -5.067,-3.102 -1.875,-0.965 -3.833,-1.813 -5.873,-2.544 -2.041,-0.73 -4.109,-1.303 -6.204,-1.716 -2.096,-0.414 -4.109,-0.62 -6.039,-0.62 v 2.482 c 0,1.737 0.393,3.192 1.179,4.363 0.786,1.172 1.875,2.109 3.267,2.812 1.392,0.703 3.046,1.199 4.963,1.489 1.916,0.29 4.018,0.434 6.307,0.434 V 40.88 H 21.024 c -2.73,0 -4.791,-0.737 -6.183,-2.213 -1.393,-1.475 -2.089,-3.77 -2.089,-6.886 V 9.445 C 12.752,8.591 12.69,7.894 12.566,7.356 12.442,6.818 12.269,6.398 12.049,6.095 11.828,5.792 11.566,5.585 11.263,5.475 10.959,5.365 10.628,5.31 10.27,5.31 9.718,5.31 9.146,5.483 8.554,5.827 7.961,6.172 7.423,6.689 6.941,7.378 6.458,8.068 6.065,8.929 5.762,9.963 5.458,10.997 5.307,12.204 5.307,13.582 v 15.717 c 0,1.214 0.096,2.289 0.29,3.226 0.193,0.938 0.496,1.778 0.91,2.523 0.414,0.744 0.958,1.42 1.634,2.027 0.675,0.607 1.51,1.199 2.502,1.778 z M 30.953,19.578 c 1.489,-1.213 3.185,-2.364 5.087,-3.454 1.903,-1.089 3.963,-2.074 6.183,-2.957 2.219,-0.882 4.57,-1.647 7.052,-2.295 2.482,-0.648 5.046,-1.165 7.693,-1.551 C 55.81,8.467 54.342,7.722 52.563,7.088 50.785,6.454 48.544,6.137 45.842,6.137 c -2.124,0 -4.074,0.345 -5.852,1.034 -1.779,0.69 -3.323,1.641 -4.632,2.854 -1.31,1.214 -2.351,2.641 -3.123,4.281 -0.772,1.639 -1.199,3.397 -1.282,5.272 z" />
<path
   id="path12"
   d="m 87.532,41.623 c -1.324,-0.772 -2.385,-1.592 -3.185,-2.461 -0.8,-0.869 -1.42,-1.854 -1.861,-2.957 -0.441,-1.103 -0.738,-2.35 -0.889,-3.743 C 81.445,31.07 81.37,29.463 81.37,27.644 v -8.272 c 0,-3.226 0.31,-5.942 0.931,-8.148 0.62,-2.206 1.51,-3.991 2.668,-5.356 1.158,-1.365 2.55,-2.35 4.177,-2.957 1.627,-0.606 3.446,-0.91 5.46,-0.91 h 9.926 V 5.31 c -0.827,0.744 -1.551,1.551 -2.171,2.42 -0.62,0.869 -1.137,1.951 -1.551,3.247 -0.414,1.296 -0.724,2.882 -0.931,4.756 -0.207,1.875 -0.31,4.192 -0.31,6.948 v 6.618 c 0,2.951 0.593,5.067 1.778,6.349 1.185,1.282 3.074,1.923 5.666,1.923 h 13.649 c 2.591,0 4.48,-0.655 5.666,-1.965 1.185,-1.309 1.778,-3.412 1.778,-6.307 V 16.89 c 0,-2.123 -0.235,-3.922 -0.703,-5.397 -0.469,-1.475 -1.193,-2.668 -2.171,-3.578 -0.979,-0.91 -2.22,-1.572 -3.722,-1.985 -1.503,-0.414 -3.302,-0.62 -5.397,-0.62 V 2 h 19.026 c 1.93,0 3.571,0.227 4.922,0.682 1.351,0.455 2.461,1.103 3.329,1.944 0.869,0.841 1.503,1.875 1.903,3.102 0.399,1.227 0.6,2.626 0.6,4.198 v 28.952 h -7.445 V 11.926 c 0,-1.93 -0.628,-3.516 -1.882,-4.756 -1.255,-1.241 -3.109,-1.861 -5.563,-1.861 h -3.309 c 1.296,1.214 2.24,2.765 2.833,4.653 0.593,1.889 0.889,4.198 0.889,6.928 v 12.408 c 0,3.943 -0.917,6.859 -2.75,8.748 -1.834,1.889 -4.502,2.833 -8.003,2.833 h -17.785 c -3.502,0 -6.17,-0.931 -8.003,-2.792 -1.834,-1.861 -2.75,-4.791 -2.75,-8.789 V 22.68 c 0,-2.343 0.083,-4.426 0.248,-6.245 0.165,-1.82 0.441,-3.433 0.827,-4.839 0.386,-1.406 0.889,-2.619 1.51,-3.64 0.62,-1.02 1.371,-1.903 2.254,-2.647 h -2.358 c -1.572,0 -2.971,0.221 -4.198,0.662 -1.227,0.441 -2.268,1.199 -3.123,2.275 -0.855,1.075 -1.503,2.516 -1.944,4.322 -0.441,1.806 -0.662,4.074 -0.662,6.804 v 8.272 c 0,1.517 0.048,2.847 0.145,3.991 0.096,1.145 0.303,2.158 0.62,3.04 0.317,0.883 0.772,1.654 1.365,2.316 0.593,0.662 1.386,1.282 2.378,1.861 z" />
</svg>
