<?xml version="1.0" standalone="no"?>
<!DOCTYPE svg PUBLIC "-//W3C//DTD SVG 1.1//EN" "http://www.w3.org/Graphics/SVG/1.1/DTD/svg11.dtd" >
<svg viewBox="0 0 1200 2048" xmlns="http://www.w3.org/2000/svg" version="1.0">
  <g transform="matrix(1 0 0 -1 150 1600)">
   <path fill="currentColor"
d="M756 414q0 156 -76.5 266.5q-82.382 118.996 -198.5 110.5q-4.91501 7.86902 -147 -45q-23 -16 -23 -73v-372q0 -80.987 75.5 -172.5q75.5 -91.5 171.5 -91.5t147 110.5t51 266.5zM930 430q0 -218 -111.5 -335.5t-294.5 -117.5q-44.6 0 -155 46q-24 10 -58 10
q-12 0 -96 -56q-3 -2 -9 -2t-21 6q-31 12 -31 19q4 50.3321 4 260v276v22q-4 30 -24 16q-3.899 -2.89001 -9.97 -12q-96.2287 -144.385 -124.03 -401.795q-36.083 -334.088 130 -372.205q119.169 -27.35 204 68q17.87 20.086 35.935 8.043t12.065 -30.043
q-44.194 -132.582 -228 -134.757q-343.031 -5.293 -308 498.962q22.176 317.976 286.704 529.795q13.823 11.069 19.296 46l6 56v348q0 133 -92 133q-17 0 -17 27.5t17 27.5q25 0 105 41t100.5 59.5t32.5 18.5q14.21 0 13 -25l-6 -124v-485q0 -26.982 13 -27
q19.803 6.19702 20 6q136 40 176 40q180.059 -4.56201 293 -131.5q117 -131.5 117 -308.5z" />
  </g>

</svg>
