<?xml version="1.0" encoding="UTF-8" standalone="no"?>
<svg xmlns="http://www.w3.org/2000/svg"
   xmlns:dc="http://purl.org/dc/elements/1.1/"
   xmlns:cc="http://creativecommons.org/ns#"
   xmlns:rdf="http://www.w3.org/1999/02/22-rdf-syntax-ns#"
   version="1.0" width="918" height="825" viewBox="-7 0 612 550">
  <metadata>
    <rdf:RDF>
      <cc:Work rdf:about="">
        <dc:format>image/svg+xml</dc:format>
        <dc:type rdf:resource="http://purl.org/dc/dcmitype/StillImage" />
      </cc:Work>
    </rdf:RDF>
  </metadata>
  <g>
    <path
       d="M 35.075144,259.07835 C 2.2982644,255.34495 2.8071844,257.08735 30.575144,243.67145 C 85.337984,217.21317 84.813844,217.44925 86.213834,218.61114 C 88.134214,220.20491 88.001344,221.36077 84.036954,237.54855 C 78.327564,260.86174 78.855124,259.48111 75.048354,261.07168 C 70.549344,262.95149 67.933634,262.82105 35.075144,259.07835 z M 72.079844,250.24604 C 72.378394,249.00854 73.234684,244.73354 73.982724,240.74604 L 75.342794,233.49604 L 71.467244,233.49604 C 68.637154,233.49604 63.408184,235.58263 52.083414,241.23107 C 43.553864,245.48535 36.575144,249.24994 36.575144,249.59682 C 36.575144,249.94372 42.987644,250.6641 50.825144,251.19767 C 73.104794,252.71446 71.466654,252.78781 72.079844,250.24604 z" />
    <path
       d="M 23.00754,514.24796 L 23.27414,487.99796 L 27.27414,486.00266 C 30.82291,484.23246 33.72773,483.96766 53.02414,483.65476 L 74.77414,483.30216 L 74.77414,511.90006 L 74.77414,540.49806 L 48.75754,540.49806 L 22.74093,540.49806 L 23.00754,514.24796 z M 67.77414,525.49806 L 67.77414,516.49796 L 48.77414,516.49796 L 29.77414,516.49796 L 29.77414,525.49806 L 29.77414,534.49806 L 48.77414,534.49806 L 67.77414,534.49806 L 67.77414,525.49806 z M 55.77414,509.33346 C 59.89914,508.77136 64.27594,508.24086 65.50036,508.15466 C 67.86769,507.98806 68.19189,506.77686 69.08901,494.74796 L 69.48056,489.49796 L 50.24398,489.49796 C 31.14026,489.49796 31.00324,489.51356 30.40443,491.74796 C 29.62809,494.64486 29.60315,504.39306 30.36236,508.18906 L 30.95058,511.13016 L 39.61236,510.74286 C 44.37634,510.52986 51.64914,509.89566 55.77414,509.33346 z" />
    <path
       d="M 36.06678,473.45664 C 27.2394,471.08174 27.03545,470.39024 34.96636,469.72534 C 38.95724,469.39074 42.57395,468.75914 43.0035,468.32174 C 44.62629,466.66944 48.05327,447.08604 48.6112,436.27654 L 49.19188,425.02654 L 41.30239,425.02104 C 36.96318,425.01794 31.61291,424.50264 29.41291,423.87584 L 25.41291,422.73624 L 28.91291,421.13144 C 33.63144,418.96784 74.09858,418.67934 71.18112,420.83004 C 70.2086,421.54704 66.78385,422.89704 63.57056,423.83004 C 59.33105,425.06114 57.37539,426.21244 56.44217,428.02654 C 54.25982,432.26894 52.85145,440.97884 52.22173,454.12734 L 51.61824,466.72824 L 54.65525,467.78694 C 56.32561,468.36924 61.12901,469.40004 65.32949,470.07764 C 72.68091,471.26354 72.90377,471.37924 71.28482,473.16814 C 69.79119,474.81854 68.02525,475.01924 55.50792,474.96074 C 46.59441,474.91914 39.44761,474.36624 36.06678,473.45664 z" />
    <path
       d="M 49.149826,390.90696 C 49.021836,369.50326 46.854576,364.41073 33.426366,353.96065 C 29.212306,350.68119 24.819686,347.18671 23.664996,346.19514 L 21.565566,344.39229 L 24.065566,345.03398 C 25.440566,345.38691 31.388636,348.11069 37.283506,351.08682 C 43.178366,354.06297 49.158796,356.498 50.573336,356.498 C 54.342666,356.498 60.244796,353.17143 67.706826,346.8412 C 72.804516,342.51669 74.492256,341.56261 75.165186,342.62495 C 77.211536,345.85546 75.858576,347.65852 63.752106,357.83486 C 54.976406,365.21146 54.785346,365.6837 54.032746,381.85856 C 53.511716,393.05656 52.944146,396.93416 51.304466,400.49796 L 49.234086,404.99796 L 49.149826,390.90696 z" />
    <path
       d="M 64.478594,337.298 C 63.700604,336.52001 63.278594,332.47578 63.278594,325.798 L 63.278594,315.498 L 48.278594,315.498 L 33.278594,315.498 L 33.278594,312.998 L 33.278594,310.498 L 47.618084,310.498 L 61.957564,310.498 L 63.118084,307.95095 C 65.609594,302.48266 65.652744,302.498 47.778594,302.498 C 31.945264,302.498 31.278594,302.41719 31.278594,300.498 C 31.278594,299.39799 31.488124,298.498 31.744214,298.498 C 35.477234,298.498 55.502354,294.99216 58.406394,293.83019 C 62.244424,292.29451 64.282134,288.93078 62.813724,286.55484 C 61.851834,284.99847 40.785194,285.25373 34.615224,286.8965 C 29.124564,288.35841 27.278594,287.72459 27.278594,284.37746 C 27.278594,282.32556 27.817314,282.20135 48.484964,279.48832 C 65.491724,277.25585 67.029024,277.46007 69.207434,282.24116 C 70.441864,284.95044 70.548064,294.73816 69.620784,320.33769 C 69.044574,336.24534 68.759274,338.498 67.320784,338.498 C 66.417584,338.498 65.138594,337.95799 64.478594,337.298 z" />
    <path
       d="M 62.30649,184.248 C 56.78033,172.0105 51.71981,160.3105 51.06089,158.248 C 50.1975,155.54551 49.29783,154.498 47.84016,154.498 C 46.72768,154.498 41.63269,158.09799 36.51795,162.498 C 28.58127,169.32559 26.68566,170.498 23.58301,170.498 C 20.18762,170.498 20.02258,170.35787 21.08341,168.37568 C 23.05341,164.69471 34.65752,154.02874 43.65603,147.62796 C 48.42071,144.23877 52.42336,141.58554 52.55081,141.7319 C 52.93245,142.17013 66.9966,173.16907 72.18054,184.998 C 75.92164,193.53457 77.00309,197.17373 77.00958,201.248 C 77.01729,206.08284 76.83354,206.498 74.686,206.498 C 72.61432,206.498 71.23263,204.01466 62.30649,184.248 z" />
    <path
       d="M 47.822426,138.248 C 46.294936,136.08137 46.339156,135.98821 49.015726,135.73393 C 56.457416,135.02698 58.720366,134.14736 62.820506,130.36798 C 67.181216,126.34842 68.965096,122.18375 67.841926,118.64493 C 66.840896,115.49098 56.635286,110.92627 40.795286,106.54767 C 32.545286,104.26714 24.974926,102.15727 23.972256,101.85907 C 22.208226,101.33441 22.208226,101.25034 23.972256,99.261239 C 27.315556,95.491359 35.804846,90.721402 51.833176,83.606732 C 68.886866,76.036932 69.257716,76.013362 69.272806,82.498002 C 69.277286,84.423002 70.703066,93.851909 72.441196,103.45114 C 76.267746,124.58414 75.919356,127.5444 68.832146,134.11728 C 62.041526,140.41513 50.895266,142.60659 47.822426,138.248 z M 64.517636,97.247999 C 63.738996,92.160499 62.807936,87.696982 62.448606,87.329072 C 61.935386,86.803582 36.733506,96.726449 35.533436,97.926509 C 35.370696,98.089249 39.638026,100.06917 45.016406,102.32631 C 52.414856,105.4312 56.150936,106.43845 60.364316,106.4641 L 65.933346,106.498 L 64.517636,97.247999 z" />
    <path
       d="M 38.239178,72.082062 C 36.754588,69.816282 36.581628,68.017912 37.119528,60.439982 C 37.898638,49.463812 37.230858,48.526822 26.347078,45.324762 C 17.493158,42.719892 17.512538,41.795052 26.550008,35.640582 C 35.919208,29.260212 36.276058,28.627572 36.276058,18.397792 L 36.276058,9.506052 L 38.982248,9.502022 C 41.648398,9.498052 41.692788,9.605262 41.982248,16.747992 C 42.266488,23.761842 42.362438,24.007992 44.927838,24.304942 C 46.609368,24.499572 51.914738,22.480012 59.427838,18.785302 C 68.117178,14.512152 72.142548,13.047492 74.526058,13.291712 C 76.313558,13.474862 77.776058,14.020792 77.776058,14.504892 C 77.776058,16.562252 69.512798,21.948382 59.276058,26.563502 C 53.226058,29.291072 46.947598,32.582322 45.323928,33.877392 C 42.406488,36.204402 42.392408,36.263532 44.126228,38.909672 C 46.254188,42.157352 48.751018,43.172892 58.095748,44.591552 C 66.325118,45.840872 72.432598,48.257822 75.181048,51.352812 L 77.086038,53.497992 L 68.268938,53.497992 C 62.833978,53.497992 57.431008,52.860982 54.183618,51.837332 C 49.284988,50.293182 48.738608,50.292512 46.395348,51.827882 C 43.404778,53.787372 41.795228,58.888312 41.766318,66.497992 C 41.738548,73.809552 40.576508,75.649272 38.239178,72.082062 z" />
    <text style="font-size:48px;font-style:normal;font-weight:normal;text-align:center;text-anchor:middle;fill:#000000;fill-opacity:1;stroke:none;font-family:Times New Roman"><tspan
         y="123.07536"
         x="116.68257">B</tspan><tspan
         y="188.78224"
         x="117.10445">G</tspan><tspan
         y="255.4847"
         x="117.97163">D</tspan><tspan
         y="322.1871"
         x="117.97163">H</tspan><tspan
         y="385.90289"
         x="123.45601">W</tspan><tspan
         y="459.57422"
         x="116.5107">Z</tspan><tspan
         y="531.25452"
         x="117.97163">H</tspan><tspan
         y="57.368473"
         x="105.94038">’</tspan></text>
    <circle stroke="#000000" stroke-width="2.4555" cx="117.297" cy="536.335" r="1.0818"/>
  </g>
  <g transform="translate(-52,0)">
    <path
       d="M 308.41856,531.1486 C 298.93969,526.7425 295.31199,515.7714 300.24106,506.4178 C 304.31236,498.6919 317.15679,491.5105 326.90372,491.5105 C 328.8959,491.5105 332.86116,492.6742 335.71539,494.0966 C 347.43366,499.936 348.80511,510.3721 339.20324,520.6373 C 330.76353,529.66 316.03508,534.689 308.41856,531.1486 z M 325.49938,522.6132 C 333.07665,519.1718 338.8913,511.1962 338.91298,504.2145 C 338.92016,501.9022 329.75282,497.5337 324.8649,497.5203 C 316.8637,497.4983 302.91856,507.4747 302.91856,513.2208 C 302.91856,522.0714 315.3277,527.2329 325.49938,522.6132 z" />
    <path
       d="M 314.80211,475.16593 C 314.14401,474.33743 314.15844,471.86003 314.84493,467.81783 C 316.36709,458.85503 315.79344,458.02543 308.52888,458.68413 C 302.77504,459.20593 302.55005,459.13843 302.55005,456.88983 C 302.55005,454.69413 303.03184,454.51143 310.55005,453.85553 L 318.55005,453.15773 L 318.55005,449.78683 L 318.55005,446.41593 L 310.55005,446.41593 L 302.55005,446.41593 L 302.55005,443.41593 L 302.55005,440.41593 L 308.61579,440.41593 C 315.80818,440.41593 318.55005,439.19663 318.55005,435.99823 C 318.55005,433.80473 318.05497,433.60453 310.99417,432.94293 C 304.70745,432.35383 303.49253,431.95613 303.76125,430.57543 C 304.02388,429.22593 305.06761,428.98023 309.3488,429.26023 C 315.91594,429.68963 319.05708,427.85723 319.95456,423.07333 C 320.31119,421.17233 321.26607,419.06663 322.07651,418.39403 C 323.33678,417.34803 323.55005,417.81113 323.55005,421.59353 C 323.55005,424.02583 324.09005,426.55593 324.75005,427.21593 C 325.41005,427.87593 328.56005,428.41593 331.75005,428.41593 C 337.27005,428.41593 337.55005,428.53663 337.55005,430.91593 C 337.55005,433.32353 337.31222,433.41593 331.11744,433.41593 C 325.57272,433.41593 324.5976,433.69083 324.05289,435.40703 C 323.14338,438.27263 323.93561,439.02413 329.28305,440.36803 C 333.89268,441.52663 337.55005,443.82843 337.55005,445.57093 C 337.55005,446.03573 334.40005,446.41593 330.55005,446.41593 L 323.55005,446.41593 L 323.55005,450.84853 C 323.55005,455.92683 323.48475,455.88873 334.05005,456.97463 L 341.05005,457.69403 L 337.56709,459.15293 C 335.22099,460.13563 332.52352,460.40483 329.30299,459.97753 C 325.0406,459.41213 324.26627,459.61913 322.16619,461.88513 C 320.87057,463.28313 319.05363,467.12453 318.12854,470.42143 C 317.20346,473.71843 316.29995,476.41593 316.12076,476.41593 C 315.94156,476.41593 315.34817,475.85343 314.80211,475.16593 z" />
    <path
       d="M 328.94721,397.9076 C 330.09014,386.8508 331.49937,366.75747 331.52292,361.18217 C 331.54882,355.05059 332.56905,354.83384 321.5351,363.30414 C 315.74486,367.74906 314.96411,368.0541 309.37914,368.0541 C 304.1782,368.0541 303.47277,367.82913 303.89253,366.30414 C 304.15746,365.34164 305.12165,361.05234 306.03519,356.77239 C 307.15585,351.52201 308.50461,348.10641 310.18145,346.27239 L 312.66674,343.55414 L 312.03205,349.55414 C 311.68298,352.85414 311.15694,356.56664 310.86308,357.80414 C 309.8536,362.05528 314.74679,360.49126 324.15965,353.55414 C 329.01051,349.97914 333.36138,347.05414 333.82824,347.05414 C 335.51847,347.05414 338.52237,349.1422 339.52365,351.01311 C 340.26994,352.40755 339.5926,359.35009 337.02538,376.62 C 335.0882,389.6515 333.26271,400.7029 332.96873,401.1785 C 332.67475,401.6542 331.50188,402.5424 330.36234,403.1522 C 328.33956,404.2348 328.30602,404.1105 328.94721,397.9076 z" />
    <path
       d="M 333.37117,334.3146 C 333.37117,332.76763 334.02295,330.57137 334.81957,329.43404 C 335.61619,328.2967 337.25191,322.45907 338.4545,316.46153 C 340.40502,306.73397 340.51163,304.77519 339.44221,298.31479 C 338.78285,294.33163 338.52369,290.61914 338.86629,290.06479 C 340.11282,288.04788 337.54991,289.14677 331.44218,293.24801 C 324.41848,297.96431 322.79839,297.7808 320.86896,292.05036 C 320.24439,290.19537 319.21129,288.50362 318.57317,288.29091 C 317.93505,288.0782 314.99757,290.18853 312.04544,292.98054 C 309.0933,295.77253 306.41859,298.05691 306.10162,298.05691 C 305.78466,298.05691 303.91564,295.48349 301.94825,292.3382 C 298.3324,286.55751 296.95351,279.42477 299.62117,280.30067 C 300.73018,280.6648 304.07486,284.98712 306.3391,288.98223 C 306.9733,290.10123 308.54473,289.29529 313.65083,285.23223 C 317.22799,282.3858 321.10345,280.05691 322.26296,280.05691 C 324.12614,280.05691 324.37117,280.63803 324.37117,285.05691 C 324.37117,288.76751 324.74664,290.05691 325.82716,290.05691 C 327.39109,290.05691 336.30899,285.03757 340.24277,281.94327 C 345.17237,278.06565 345.37117,278.66363 345.37117,297.36932 C 345.37117,313.93689 345.24308,315.06067 342.39401,323.48934 C 339.28589,332.68437 338.24315,334.51987 335.20341,336.14669 C 333.62895,336.98932 333.37117,336.73156 333.37117,334.3146 z" />
    <path
       d="M 314.52621,261.50374 C 305.99347,254.79189 309.43374,233.67599 321.12207,221.01938 C 325.57938,216.19281 325.74093,216.1127 325.77925,218.70961 C 325.80503,220.45621 323.99247,223.78285 320.61175,228.19369 C 313.00098,238.12349 310.5828,249.40685 314.89154,254.88452 C 317.61613,258.34827 320.92888,258.24937 327.72873,254.50126 C 330.7041,252.86122 333.2916,251.51938 333.47873,251.51938 C 333.66586,251.51938 333.81896,252.38475 333.81896,253.44245 C 333.81896,255.72255 328.49488,261.3119 325.08982,262.6065 C 321.22034,264.07767 317.27481,263.66579 314.52621,261.50374 z" />
    <path
       d="M 310.24242,202.11206 C 311.47862,200.32455 315.02954,195.26205 318.13334,190.86206 C 321.23714,186.46205 324.72993,181.27668 325.8951,179.33899 L 328.01359,175.81591 L 311.32228,176.16274 C 302.14206,176.3535 292.83097,176.11443 290.63097,175.63151 C 286.95158,174.82383 287.607,174.62228 298.80798,173.11695 C 310.66722,171.52315 321.13097,168.22128 321.13097,166.07284 C 321.13097,165.49924 319.10597,161.78094 316.63097,157.80996 C 313.273,152.42233 312.14031,149.6094 312.16777,146.72603 L 312.20457,142.86206 L 322.93762,154.2297 C 330.86561,162.62643 334.18819,165.49845 335.65082,165.21889 C 336.7399,165.01075 341.45597,160.23607 346.13097,154.60852 L 354.63097,144.37658 L 354.93715,147.79904 C 355.46005,153.64412 350.76343,160.68147 325.63097,191.71104 C 315.5493,204.15828 314.35396,205.29501 311.31288,205.32707 L 307.99478,205.36206 L 310.24242,202.11206 z" />
    <path
       d="M 333.99718,129.81071 C 332.94894,129.04421 330.72543,125.60144 329.05605,122.16009 C 324.61613,113.0074 324.88481,113.07771 308.52082,116.78621 C 306.06865,117.34193 306.05908,117.32109 308.02082,115.69768 C 309.12082,114.78737 312.63923,112.7069 315.8395,111.07438 C 321.48405,108.19503 321.63714,108.01042 320.95521,104.90561 C 319.97177,100.42805 316.33196,93.200659 315.07155,93.222739 C 314.49365,93.232859 308.43425,95.708779 301.60622,98.724799 C 294.77819,101.74081 289.02879,104.04564 288.82979,103.84662 C 288.63079,103.64762 290.34968,101.78479 292.64956,99.706989 C 297.16352,95.628899 310.84592,88.763816 316.52082,87.729696 L 320.02082,87.091906 L 323.87331,97.898129 C 329.06628,112.46437 335.02662,125.07746 337.09138,125.86977 C 338.12212,126.2653 342.15511,124.85283 347.40254,122.25848 C 355.52272,118.24384 355.87633,118.15626 353.52082,120.74328 C 350.32273,124.2557 339.71888,131.20433 337.55691,131.20433 C 336.6473,131.20433 335.04543,130.57719 333.99718,129.81071 z" />
    <path
       d="M 305.59148,66.726446 C 297.09853,64.008696 287.44958,51.107496 287.4287,42.441756 C 287.40659,33.269146 294.99923,23.887396 306.9888,18.272556 C 312.09615,15.880726 314.16764,15.495626 321.91893,15.497016 C 343.17036,15.500796 357.29616,25.661096 356.10104,40.083256 C 355.5533,46.693116 353.67457,50.679666 348.94065,55.277196 C 339.38307,64.559396 317.16088,70.428656 305.59148,66.726446 z M 325.46715,54.089936 C 323.11382,49.477016 319.02268,45.995406 315.95552,45.995406 C 312.30827,45.995406 304.41893,51.822466 304.41893,54.516316 C 304.41893,57.450626 305.54175,57.735186 317.68925,57.879406 L 327.45958,57.995406 L 325.46715,54.089936 z M 344.45363,49.195996 C 348.91852,44.731116 350.2493,39.710306 348.50818,33.898946 L 347.33865,29.995406 L 340.99367,29.995406 C 334.92616,29.995406 334.40339,30.197346 329.03939,34.613296 L 323.43009,39.231176 L 327.58494,44.363296 C 335.82321,54.539306 338.37831,55.271316 344.45363,49.195996 z M 302.08941,44.568486 C 308.39372,41.633186 310.08953,39.028596 308.38135,34.904676 C 307.31432,32.328636 306.68256,31.995406 302.8657,31.995406 C 299.24908,31.995406 298.22218,32.462986 296.48702,34.899776 C 294.11987,38.224146 293.52567,47.002386 295.66893,46.985636 C 296.35643,46.980266 299.24564,45.892546 302.08941,44.568486 z M 322.20217,30.519506 C 327.46412,27.757416 330.99358,25.209786 330.34593,24.641196 C 328.61064,23.117716 324.95458,21.995996 321.73467,21.999146 C 318.1833,22.002626 311.41893,25.069386 311.41893,26.675996 C 311.41893,27.390046 316.49291,32.995406 317.13926,32.995406 C 317.32965,32.995406 319.60796,31.881246 322.20217,30.519506 z" />
    <text style="font-size:48px;font-style:normal;font-weight:normal;text-align:center;text-anchor:middle;fill:#000000;fill-opacity:1;stroke:none;font-family:Times New Roman"><tspan
         y="123.07536"
         x="382.7019">Y</tspan><tspan
         y="189.78224"
         x="382.35034">K</tspan><tspan
         y="255.4847"
         x="380.5144">L</tspan><tspan
         y="322.1871"
         x="387.33472">M</tspan><tspan
         y="385.90289"
         x="383.7019">N</tspan><tspan
         y="459.57422"
         x="377.16284">S</tspan><tspan
         y="531.25452"
         x="371.48315">‘</tspan><tspan
         x="380.02222"
         y="57.368473">T</tspan></text>
    <circle stroke="#000000" stroke-width="2.4555" cx="379.718" cy="62.3203" r="1.0818"/>
  </g>
  <g transform="translate(-92,0)">
    <path
       d="M 589.3714,386.09269 C 584.77002,382.55109 580.53301,379.65329 579.95584,379.65329 C 579.37866,379.65329 574.14343,382.14259 568.32199,385.18509 L 557.73756,390.71689 L 566.88923,382.11369 L 576.04091,373.51049 L 572.0533,365.0012 C 569.86011,360.32107 568.30345,356.2541 568.59405,355.96351 C 569.56197,354.99559 575.14204,359.69336 578.38,364.20214 C 580.13813,366.65029 581.88696,368.65333 582.26629,368.65333 C 582.64562,368.65333 584.93184,366.93777 587.34677,364.84098 C 593.43657,359.55345 596.38127,357.65333 598.48581,357.65333 C 599.80144,357.65333 598.38928,359.88416 593.2634,365.90333 C 589.3993,370.44079 586.23772,374.38459 586.23766,374.66719 C 586.23761,374.94989 588.96943,378.20799 592.30838,381.90749 C 596.22981,386.25239 598.26562,389.32399 598.05838,390.58299 C 597.78402,392.24979 596.52597,391.59959 589.3714,386.09269 z" />
    <path
       d="M 540.08314,315.04491 C 532.40732,297.57991 530.31833,291.85271 530.33411,288.31696 L 530.35419,283.81696 L 543.35085,303.31696 C 550.49901,314.04196 556.68608,322.62183 557.09988,322.38333 C 557.51368,322.14484 561.8171,317.53234 566.66303,312.13333 C 571.80125,306.40868 576.24671,302.31696 577.32805,302.31696 C 579.14601,302.31696 587.35225,310.68685 587.35225,312.54108 C 587.35225,314.38729 589.18617,312.69461 597.34608,303.31696 C 608.94932,289.98212 613.26986,285.51083 617.75229,282.19873 C 621.58719,279.36509 626.35225,278.33415 626.35225,280.3381 C 626.35225,280.89972 618.2451,292.14972 608.33637,305.3381 C 591.07224,328.3164 590.1802,329.31696 586.9583,329.31696 C 583.76361,329.31696 583.48391,329.01697 581.3443,323.29571 C 580.10582,319.98403 578.75178,317.06388 578.33534,316.80651 C 577.9189,316.54913 573.42223,321.0587 568.34274,326.82776 L 559.10731,337.31696 L 554.47978,337.29491 L 549.85225,337.27285 L 540.08314,315.04491 z" />
    <path
       d="M 596.98947,259.33183 C 595.98976,243.86883 595.70055,242.91426 591.47935,241.14515 C 589.49799,240.31475 580.67688,238.09616 571.87688,236.21494 C 551.93139,231.95108 552.37688,232.09199 552.37688,230.04762 C 552.37688,228.89779 554.07152,227.76061 557.62688,226.52467 C 560.51438,225.52089 571.35043,221.32815 581.70699,217.20745 C 599.74975,210.02859 600.61738,209.78796 602.45699,211.45279 C 604.80623,213.57882 604.92113,217.86133 602.8063,224.47136 C 601.57611,228.31637 601.25665,233.76907 601.33233,249.63029 C 601.42385,268.81227 601.32985,269.88029 599.55019,269.88029 C 597.8737,269.88029 597.59803,268.7447 596.98947,259.33183 z M 594.62737,228.13029 C 594.90136,224.96778 594.96847,222.20418 594.77651,221.98893 C 594.24988,221.39839 580.60285,224.84523 574.55788,227.09555 C 571.63243,228.18459 569.42132,229.25806 569.64431,229.48105 C 570.34102,230.17775 587.71595,233.67509 591.00305,233.78026 C 594.09897,233.87932 594.13404,233.82464 594.62737,228.13029 z" />
    <path
       d="M 569.96539,201.96568 C 568.53374,199.78072 568.35196,198.12486 568.94047,192.6295 L 569.65585,185.94936 L 562.55675,179.33922 L 555.45766,172.72908 L 555.4931,167.27132 C 555.53374,161.01067 556.56806,158.8158 561.45766,154.6143 C 565.83068,150.85667 568.73048,149.31355 571.41864,149.31355 C 572.5695,149.31355 577.03042,148.12558 581.33181,146.67364 C 586.926,144.78529 590.14686,144.22025 592.64516,144.68895 C 600.6124,146.1836 603.30631,154.25911 599.57239,165.45463 C 595.66065,177.18328 594.28014,178.5609 582.16613,182.82434 C 576.1699,184.93466 574.4174,187.57537 573.7355,195.5278 C 573.01012,203.9873 572.19831,205.37355 569.96539,201.96568 z M 584.73978,175.93671 C 589.17329,174.03973 593.08844,169.61148 594.91881,164.42365 C 597.18623,157.99711 596.89079,154.61946 593.81164,151.7658 C 586.53007,145.01747 577.35328,153.45136 575.79919,168.32006 C 574.89161,177.00328 577.35075,179.09825 584.73978,175.93671 z M 569.36595,171.56355 C 572.00061,161.53696 572.66656,158.18912 572.13259,157.65514 C 569.89985,155.42241 560.45766,162.3346 560.45766,166.20183 C 560.45766,168.25898 565.92764,175.31355 567.52271,175.31355 C 567.99453,175.31355 568.82399,173.62605 569.36595,171.56355 z" />
    <path
       d="M 573.28862,135.63318 C 568.64852,130.33349 564.26358,122.89207 561.06882,114.89563 C 558.00598,107.22939 550.65892,80.841256 551.38511,80.115066 C 551.60624,79.893936 552.76107,80.022126 553.9514,80.399926 C 555.32091,80.834586 557.09282,83.228926 558.77676,86.920306 L 561.43788,92.753779 L 568.93788,90.338093 C 573.06288,89.009476 577.38064,87.916386 578.53289,87.909026 C 581.04138,87.892986 583.20905,90.153833 585.23156,94.895629 C 586.05262,96.820629 587.40679,99.289659 588.24082,100.38235 C 589.68473,102.27408 589.84901,102.28603 591.6763,100.63235 C 593.05197,99.387389 595.30352,98.895629 599.62795,98.895629 C 605.4808,98.895629 605.64667,98.968189 605.19498,101.33101 C 604.8304,103.23821 603.34918,104.31895 598.36529,106.31413 C 585.4562,111.482 580.09308,110.48896 581.28381,103.15133 C 582.02457,98.586589 580.54002,95.084859 577.54542,94.333269 C 574.34567,93.530179 572.04022,94.314479 567.11673,97.881019 L 563.09264,100.79607 L 564.40135,105.75717 C 566.09706,112.18528 569.78858,120.19505 574.32065,127.27982 C 579.74024,135.75201 578.95531,142.10535 573.28862,135.63318 z" />
    <path
       d="M 552.71206,71.95002 C 553.09051,71.33767 557.7491,68.01449 563.06448,64.56518 C 574.35118,57.24089 582.11593,50.39315 589.1313,41.57682 C 597.20479,31.43073 599.05161,24.97299 595.02992,20.95129 C 591.80955,17.73092 582.65228,18.61278 577.70089,22.62011 C 564.46734,33.33047 564.142,33.51267 564.142,30.21341 C 564.142,25.10207 578.63452,11.81201 585.64185,10.49742 C 590.16888,9.64815 594.99046,11.38584 599.99651,15.67083 C 604.93733,19.9 605.27122,22.71643 601.82128,31.06337 C 595.02081,47.51675 577.44992,65.71879 563.10641,71.1689 C 557.52895,73.28817 551.61014,73.73296 552.71206,71.95002 z" />
    <text style="font-size:48px;font-style:normal;font-weight:normal;text-align:center;text-anchor:middle;fill:#000000;fill-opacity:1;stroke:none;font-family:Times New Roman"><tspan
         y="57.368473"
         x="653.42731">P</tspan><tspan
         y="123.07536"
         x="651.22418">S</tspan><tspan
         y="186.78224"
         x="656.52106">Q</tspan><tspan
         y="255.4847"
         x="656.07574">R</tspan><tspan
         y="385.90289"
         x="653.08356">T</tspan><tspan
         y="318.20486"
         x="652.22418">Š</tspan></text>
    <circle stroke="#000000" stroke-width="2.4555" cx="651.423" cy="129.44" r="1.0818"/>
  </g>
</svg>
